<svg width="29" height="29" viewBox="0 0 29 29" fill="none" xmlns="http://www.w3.org/2000/svg">
<g clip-path="url(#clip0_10_55)">
<path d="M11.9512 0.413471C11.6113 0.0566355 11.1016 -0.0793021 10.6258 0.0453073C10.15 0.169917 9.78183 0.549409 9.65722 1.02519L8.7623 4.56523L5.25058 3.57402C4.7748 3.43808 4.26503 3.57402 3.91953 3.91953C3.57402 4.26503 3.43808 4.7748 3.57402 5.25058L4.56523 8.7623L1.02519 9.66289C0.549409 9.78183 0.175581 10.1557 0.0453073 10.6314C-0.0849661 11.1072 0.0566355 11.6113 0.413471 11.9512L3.03027 14.5L0.413471 17.0488C0.0566355 17.3887 -0.0793021 17.8984 0.0453073 18.3742C0.169917 18.85 0.549409 19.2182 1.02519 19.3428L4.56523 20.2377L3.57402 23.7494C3.43808 24.2252 3.57402 24.735 3.91953 25.0805C4.26503 25.426 4.7748 25.5619 5.25058 25.426L8.7623 24.4348L9.65722 27.9748C9.77617 28.4506 10.15 28.8244 10.6258 28.9547C11.1016 29.085 11.6057 28.9434 11.9512 28.5922L14.5 25.9754L17.0488 28.5922C17.3943 28.9434 17.8984 29.085 18.3742 28.9547C18.85 28.8244 19.2182 28.4506 19.3428 27.9748L20.2377 24.4348L23.7494 25.426C24.2252 25.5619 24.735 25.426 25.0805 25.0805C25.426 24.735 25.5619 24.2252 25.426 23.7494L24.4348 20.2377L27.9748 19.3428C28.4506 19.2238 28.8244 18.85 28.9547 18.3742C29.085 17.8984 28.9434 17.3943 28.5922 17.0488L25.9754 14.5L28.5922 11.9512C28.9434 11.6057 29.085 11.1016 28.9547 10.6258C28.8244 10.15 28.4506 9.78183 27.9748 9.65722L24.4348 8.7623L25.426 5.25058C25.5619 4.7748 25.426 4.26503 25.0805 3.91953C24.735 3.57402 24.2252 3.43808 23.7494 3.57402L20.2377 4.56523L19.3371 1.02519C19.2182 0.549409 18.8443 0.175581 18.3686 0.0453073C17.8928 -0.0849661 17.3887 0.0566355 17.0488 0.413471L14.5 3.03027L11.9512 0.413471Z" fill="#FFD700"/>
<path d="M22.0936 9.16776C22.536 9.6102 22.536 10.3287 22.0936 10.7712L13.0321 19.8322C12.5896 20.2747 11.8711 20.2747 11.4286 19.8322L6.89788 15.3017C6.45543 14.8593 6.45543 14.1407 6.89788 13.6983C7.34034 13.2559 8.05888 13.2559 8.50134 13.6983L12.2321 17.4254L20.4937 9.16776C20.9361 8.72533 21.6547 8.72533 22.0971 9.16776H22.0936Z" fill="#008000"/>
</g>
<defs>
<clipPath id="clip0_10_55">
<rect width="29" height="29" fill="white"/>
</clipPath>
</defs>
</svg>
