<svg width="29" height="24" viewBox="0 0 29 24" fill="none" xmlns="http://www.w3.org/2000/svg">
<g clip-path="url(#clip0_27_211)">
<path d="M21.75 2.175C21.75 0.974219 20.7758 0 19.575 0H15.225C14.0242 0 13.05 0.974219 13.05 2.175V4.35H10.15V1.0875C10.15 0.484844 9.66516 0 9.0625 0C8.45984 0 7.975 0.484844 7.975 1.0875V4.35H5.075V1.0875C5.075 0.484844 4.59016 0 3.9875 0C3.38484 0 2.9 0.484844 2.9 1.0875V4.35H2.175C0.974219 4.35 0 5.32422 0 6.525V10.875V21.025C0 22.2258 0.974219 23.2 2.175 23.2H13.775H15.225H19.575H26.825C28.0258 23.2 29 22.2258 29 21.025V10.875C29 9.67422 28.0258 8.7 26.825 8.7H21.75V2.175ZM26.1 16.675V18.125C26.1 18.5238 25.7738 18.85 25.375 18.85H23.925C23.5263 18.85 23.2 18.5238 23.2 18.125V16.675C23.2 16.2763 23.5263 15.95 23.925 15.95H25.375C25.7738 15.95 26.1 16.2763 26.1 16.675ZM10.875 18.85H9.425C9.02625 18.85 8.7 18.5238 8.7 18.125V16.675C8.7 16.2763 9.02625 15.95 9.425 15.95H10.875C11.2738 15.95 11.6 16.2763 11.6 16.675V18.125C11.6 18.5238 11.2738 18.85 10.875 18.85ZM5.8 18.125C5.8 18.5238 5.47375 18.85 5.075 18.85H3.625C3.22625 18.85 2.9 18.5238 2.9 18.125V16.675C2.9 16.2763 3.22625 15.95 3.625 15.95H5.075C5.47375 15.95 5.8 16.2763 5.8 16.675V18.125ZM25.375 11.6C25.7738 11.6 26.1 11.9263 26.1 12.325V13.775C26.1 14.1738 25.7738 14.5 25.375 14.5H23.925C23.5263 14.5 23.2 14.1738 23.2 13.775V12.325C23.2 11.9263 23.5263 11.6 23.925 11.6H25.375ZM11.6 7.975V9.425C11.6 9.82375 11.2738 10.15 10.875 10.15H9.425C9.02625 10.15 8.7 9.82375 8.7 9.425V7.975C8.7 7.57625 9.02625 7.25 9.425 7.25H10.875C11.2738 7.25 11.6 7.57625 11.6 7.975ZM5.075 7.25C5.47375 7.25 5.8 7.57625 5.8 7.975V9.425C5.8 9.82375 5.47375 10.15 5.075 10.15H3.625C3.22625 10.15 2.9 9.82375 2.9 9.425V7.975C2.9 7.57625 3.22625 7.25 3.625 7.25H5.075ZM11.6 13.775C11.6 14.1738 11.2738 14.5 10.875 14.5H9.425C9.02625 14.5 8.7 14.1738 8.7 13.775V12.325C8.7 11.9263 9.02625 11.6 9.425 11.6H10.875C11.2738 11.6 11.6 11.9263 11.6 12.325V13.775ZM5.075 14.5H3.625C3.22625 14.5 2.9 14.1738 2.9 13.775V12.325C2.9 11.9263 3.22625 11.6 3.625 11.6H5.075C5.47375 11.6 5.8 11.9263 5.8 12.325V13.775C5.8 14.1738 5.47375 14.5 5.075 14.5ZM18.85 12.325V13.775C18.85 14.1738 18.5238 14.5 18.125 14.5H16.675C16.2763 14.5 15.95 14.1738 15.95 13.775V12.325C15.95 11.9263 16.2763 11.6 16.675 11.6H18.125C18.5238 11.6 18.85 11.9263 18.85 12.325ZM18.125 2.9C18.5238 2.9 18.85 3.22625 18.85 3.625V5.075C18.85 5.47375 18.5238 5.8 18.125 5.8H16.675C16.2763 5.8 15.95 5.47375 15.95 5.075V3.625C15.95 3.22625 16.2763 2.9 16.675 2.9H18.125ZM18.85 7.975V9.425C18.85 9.82375 18.5238 10.15 18.125 10.15H16.675C16.2763 10.15 15.95 9.82375 15.95 9.425V7.975C15.95 7.57625 16.2763 7.25 16.675 7.25H18.125C18.5238 7.25 18.85 7.57625 18.85 7.975Z" fill="#FFD700"/>
</g>
<defs>
<clipPath id="clip0_27_211">
<rect width="29" height="23.2" fill="white"/>
</clipPath>
</defs>
</svg>
