<svg width="29" height="29" viewBox="0 0 29 29" fill="none" xmlns="http://www.w3.org/2000/svg">
<g clip-path="url(#clip0_26_185)">
<path d="M26.2812 14.5C26.2812 17.6246 25.04 20.6212 22.8306 22.8306C20.6212 25.04 17.6246 26.2812 14.5 26.2812C11.3754 26.2812 8.37881 25.04 6.1694 22.8306C3.95999 20.6212 2.71875 17.6246 2.71875 14.5C2.71875 11.3754 3.95999 8.37881 6.1694 6.1694C8.37881 3.95999 11.3754 2.71875 14.5 2.71875C17.6246 2.71875 20.6212 3.95999 22.8306 6.1694C25.04 8.37881 26.2812 11.3754 26.2812 14.5ZM0 14.5C0 18.3456 1.52767 22.0338 4.24695 24.753C6.96623 27.4723 10.6544 29 14.5 29C18.3456 29 22.0338 27.4723 24.753 24.753C27.4723 22.0338 29 18.3456 29 14.5C29 10.6544 27.4723 6.96623 24.753 4.24695C22.0338 1.52767 18.3456 0 14.5 0C10.6544 0 6.96623 1.52767 4.24695 4.24695C1.52767 6.96623 0 10.6544 0 14.5ZM13.1406 6.79688V14.5C13.1406 14.9531 13.3672 15.3779 13.7467 15.6328L19.1842 19.2578C19.8072 19.677 20.6512 19.507 21.0703 18.8783C21.4895 18.2496 21.3195 17.4113 20.6908 16.9922L15.8594 13.775V6.79688C15.8594 6.04355 15.2533 5.4375 14.5 5.4375C13.7467 5.4375 13.1406 6.04355 13.1406 6.79688Z" fill="#FFE34E"/>
</g>
<defs>
<clipPath id="clip0_26_185">
<rect width="29" height="29" fill="white"/>
</clipPath>
</defs>
</svg>
