<svg width="29" height="20" viewBox="0 0 29 20" fill="none" xmlns="http://www.w3.org/2000/svg">
<g clip-path="url(#clip0_10_51)">
<path d="M14.6575 2.0131L10.2712 5.54747C9.5417 6.13353 9.40123 7.18843 9.95404 7.94129C10.5386 8.74374 11.6759 8.90152 12.4598 8.29292L16.9594 4.81265C17.2765 4.56921 17.7297 4.6233 17.9789 4.93887C18.2281 5.25444 18.1692 5.70526 17.852 5.9532L16.905 6.68352L23.2034 12.4539V3.94258H23.1717L22.995 3.82987L19.7053 1.73359C19.012 1.2918 18.2009 1.05737 17.3762 1.05737C16.3884 1.05737 15.4278 1.39548 14.6575 2.0131ZM15.6906 7.62121L13.3479 9.43348C11.9206 10.5425 9.84982 10.254 8.78045 8.79333C7.77451 7.41835 8.02826 5.49788 9.35592 4.42946L13.1259 1.39548C12.6003 1.17458 12.0339 1.06188 11.4584 1.06188C10.6065 1.05737 9.77732 1.30983 9.06592 1.77867L5.80342 3.94258V14.0408H7.08123L11.2228 17.8006C12.1109 18.6075 13.4839 18.5444 14.295 17.6608C14.5442 17.3858 14.7119 17.0657 14.7979 16.7321L15.5683 17.4354C16.4519 18.2424 17.8294 18.1838 18.6404 17.3047C18.8444 17.0838 18.9939 16.8268 19.089 16.5608C19.9681 17.1469 21.1644 17.0252 21.903 16.2227C22.714 15.3436 22.6551 13.9732 21.7715 13.1662L15.6906 7.62121ZM0.728418 3.94258C0.329668 3.94258 0.00341797 4.26716 0.00341797 4.66388V14.0408C0.00341797 14.8387 0.651387 15.4834 1.45342 15.4834H2.90342C3.70545 15.4834 4.35342 14.8387 4.35342 14.0408V3.94258H0.728418ZM2.17842 12.5982C2.3707 12.5982 2.55511 12.6742 2.69107 12.8095C2.82703 12.9447 2.90342 13.1282 2.90342 13.3195C2.90342 13.5108 2.82703 13.6943 2.69107 13.8295C2.55511 13.9648 2.3707 14.0408 2.17842 14.0408C1.98614 14.0408 1.80173 13.9648 1.66577 13.8295C1.5298 13.6943 1.45342 13.5108 1.45342 13.3195C1.45342 13.1282 1.5298 12.9447 1.66577 12.8095C1.80173 12.6742 1.98614 12.5982 2.17842 12.5982ZM24.6534 3.94258V14.0408C24.6534 14.8387 25.3014 15.4834 26.1034 15.4834H27.5534C28.3554 15.4834 29.0034 14.8387 29.0034 14.0408V4.66388C29.0034 4.26716 28.6772 3.94258 28.2784 3.94258H24.6534ZM26.1034 13.3195C26.1034 13.1282 26.1798 12.9447 26.3158 12.8095C26.4517 12.6742 26.6361 12.5982 26.8284 12.5982C27.0207 12.5982 27.2051 12.6742 27.3411 12.8095C27.477 12.9447 27.5534 13.1282 27.5534 13.3195C27.5534 13.5108 27.477 13.6943 27.3411 13.8295C27.2051 13.9648 27.0207 14.0408 26.8284 14.0408C26.6361 14.0408 26.4517 13.9648 26.3158 13.8295C26.1798 13.6943 26.1034 13.5108 26.1034 13.3195Z" fill="#FFD700"/>
</g>
<defs>
<clipPath id="clip0_10_51">
<rect width="29" height="23.0816" fill="white" transform="translate(0 -3)"/>
</clipPath>
</defs>
</svg>
