<svg width="67" height="67" viewBox="0 0 67 67" fill="none" xmlns="http://www.w3.org/2000/svg">
<path id="Intersect" fill-rule="evenodd" clip-rule="evenodd" d="M30.7919 28.2612C30.7867 27.7442 30.7815 27.2273 30.7871 26.5541V26.553C30.7868 25.9259 30.7866 25.2987 30.7998 24.5135C30.797 23.7167 30.7941 22.9199 30.805 21.9651C30.799 21.2236 30.7929 20.4821 30.8068 19.5828V19.5821C30.8017 18.7848 30.7966 17.9874 30.8145 17.0355C30.8056 16.4633 30.7966 15.891 30.8153 15.1648C30.8074 14.5926 30.7995 14.0204 30.8191 13.297C30.8096 12.8372 30.8 12.3774 30.8199 11.7737C30.8099 11.4814 30.8 11.1891 30.8231 10.7628V10.7627C30.8562 10.351 30.8892 9.93931 31.0235 9.47384L31.0235 9.47379L31.0236 9.47374C31.5793 8.87649 32.135 8.27923 32.789 7.64642C33.1473 7.28878 33.4023 7.50669 33.6947 7.75665L33.6948 7.75672C33.7622 7.81437 33.8317 7.87371 33.9048 7.92809L33.9049 7.92813L33.9049 7.92815C34.522 8.52012 35.1391 9.1121 35.7329 9.84876C35.7419 10.1408 35.7509 10.4329 35.7318 10.8517C35.7383 10.981 35.7448 11.1102 35.721 11.3725C35.7305 11.5534 35.74 11.7344 35.7317 12.0295C35.739 12.1059 35.7463 12.1823 35.7327 12.3419C35.7398 12.3696 35.747 12.3972 35.7321 12.5525V12.5526C35.7396 12.6813 35.747 12.8101 35.7327 13.0248C35.7396 13.0536 35.7465 13.0823 35.7308 13.2602V13.2605C35.7407 13.662 35.7506 14.0636 35.7318 14.6142V14.6145C35.7416 15.0185 35.7514 15.4225 35.7329 15.9752L35.7329 15.9758C35.7419 16.379 35.7508 16.7823 35.7308 17.3408C35.7409 18.0249 35.751 18.709 35.7318 19.551V19.5517C35.74 20.5732 35.7482 21.5947 35.724 22.775C35.7322 23.9133 35.7405 25.0516 35.7219 26.3475C35.7265 27.0328 35.7312 27.7181 35.719 28.563C35.7246 31.5195 35.7302 34.4761 35.7241 37.5877C35.7324 38.2172 35.7406 38.8467 35.7338 39.6331C35.7426 40.544 35.7515 41.4548 35.7351 42.5213C35.7448 43.3768 35.7545 44.2323 35.7407 45.2438C35.7481 46.2102 35.7555 47.1767 35.7374 48.2997C35.7452 49.3245 35.7529 50.3492 35.7371 51.5173C35.7421 51.8074 35.7471 52.0975 35.7288 52.4737C35.7361 52.5025 35.7434 52.5313 35.7319 52.7115C35.7363 53.1686 35.7407 53.6256 35.717 54.1979C35.7276 54.2756 35.7382 54.3534 35.7317 54.5828C35.7364 55.0406 35.7412 55.4984 35.7218 56.0443C35.7291 56.0739 35.7365 56.1035 35.7287 56.2737V56.2738C35.7333 56.5092 35.7379 56.7446 35.7114 57.1271L35.7115 57.1281V57.1283C35.7222 57.4782 35.7329 57.8283 35.7326 58.3352C35.7426 59.1319 35.7526 59.9285 35.7359 60.8819C35.7436 62.4152 35.7513 63.9485 35.7435 65.5626L35.8006 65.6217C35.8006 65.6217 35.8825 65.614 36.0248 65.6407L37.4219 65.4683C37.4219 63.7661 37.4219 62.1584 37.4597 60.3964C37.4702 59.6564 37.4807 58.9165 37.5371 58.1393C37.5219 58.0884 37.5067 58.0376 37.4577 57.9799C37.4577 57.9799 37.4257 57.9931 37.4649 57.8385C37.4508 56.5319 37.4368 55.2253 37.4559 53.7628C37.4444 52.9076 37.433 52.0523 37.4553 51.0408C37.4438 50.016 37.4323 48.9912 37.4485 47.8094V47.8086C37.4388 46.8406 37.4291 45.8726 37.4441 44.7474C37.4359 43.8361 37.4277 42.9247 37.4383 41.8552C37.4298 40.7748 37.4212 39.6945 37.4257 38.458V38.4555C37.4248 37.8261 37.4238 37.1966 37.4283 36.4582C37.4247 36.3854 37.4212 36.3126 37.4218 36.1522C37.4211 36.123 37.4205 36.0938 37.5137 35.9593C37.5194 35.7084 37.5278 35.4575 37.5362 35.2066C37.5548 34.6485 37.5734 34.0903 37.5625 33.5328C37.5464 32.7111 37.5161 31.8897 37.4844 31.0335L37.4844 31.0332L37.4844 31.0321C37.4635 30.4658 37.442 29.8844 37.4237 29.2777V29.2763C37.4201 28.4783 37.4165 27.6801 37.4253 26.7231V26.7209C37.4235 25.4719 37.4218 24.2229 37.433 22.8407C37.4417 22.6626 37.4503 22.4846 37.5163 22.2607L37.5249 22.2503C37.5536 22.215 37.5848 22.1766 37.71 22.1412C38.0438 22.2913 38.375 22.4487 38.7063 22.606C39.4697 22.9686 40.2332 23.3312 41.0269 23.6063C42.0022 23.9444 42.5735 24.4219 42.3626 25.6733C42.3709 26.4151 42.3792 27.1568 42.3601 28.0561L42.3601 28.0631C42.371 31.5829 42.3818 35.1028 42.3699 38.7794C42.3789 39.8039 42.388 40.8285 42.3719 42.0095C42.3804 43.1477 42.3889 44.2859 42.3723 45.5807V45.5845C42.3726 47.1718 42.373 48.7592 42.3548 50.4404C42.3636 50.4711 42.3724 50.5018 42.3681 50.6837C42.3754 51.1404 42.3826 51.5971 42.3605 52.1622L42.3605 52.1622C42.3703 52.2359 42.3801 52.3095 42.3668 52.4985C42.3745 52.5762 42.3822 52.6539 42.3679 52.8139C42.3752 52.8414 42.3826 52.8688 42.3654 53.0518C42.3717 53.6832 42.378 54.3146 42.3548 55.0958V55.0963L42.3548 55.0967C42.3648 55.5545 42.3748 56.0123 42.3661 56.62V56.6207C42.3712 57.0232 42.3764 57.4258 42.3561 57.9152C42.3642 57.9443 42.3723 57.9734 42.3619 58.1508C42.3727 58.4987 42.3836 58.8467 42.3676 59.3514V64.5538C42.9234 64.384 43.396 64.2396 43.9544 64.0948C43.9691 64.0457 43.9838 63.9967 44.022 63.7904C44.0117 62.0884 44.0015 60.3864 44.0222 58.53C44.0152 57.9009 44.0082 57.2719 44.0253 56.5555C44.0172 56.5264 44.0091 56.4972 44.0198 56.3436C44.0133 56.2182 44.0069 56.0927 44.0324 55.8241C44.023 55.5316 44.0137 55.2392 44.0242 54.8177C44.017 54.6876 44.0098 54.5576 44.0241 54.3446C44.0162 54.3171 44.0083 54.2897 44.0217 54.1056C44.0131 53.4192 44.0045 52.7329 44.0179 51.9642C44.0105 51.9367 44.0032 51.9093 44.0183 51.7675V51.7674C44.0109 51.6904 44.0034 51.6133 44.0195 51.4539C44.0114 51.4266 44.0033 51.3992 44.0156 51.2571V51.2571C44.0088 51.1801 44.0021 51.103 44.0193 50.9438C44.0111 50.9164 44.0029 50.8891 44.0158 50.7225V50.7223C44.0103 50.4881 44.0047 50.2539 44.0255 49.9311C44.0196 49.9008 44.0137 49.8706 44.0278 49.6819C44.0152 48.0358 44.0026 46.3898 44.0221 44.5862C44.0113 43.3917 44.0005 42.1972 44.0218 40.845C43.9929 39.5247 43.9641 38.2044 43.9948 36.7611C44.0119 35.6823 44.029 34.6036 44.1612 33.5469C44.5201 33.6958 44.879 33.8447 45.3437 34.0541C45.9321 34.3148 46.5206 34.5756 47.217 34.8949C47.7942 35.1874 48.3715 35.4798 48.9355 35.9235C48.9444 37.2173 48.9533 38.5111 48.9391 39.9629C48.947 41.0439 48.9548 42.1249 48.9354 43.3636C48.9439 44.6144 48.9525 45.8652 48.9363 47.274C48.9445 48.8652 48.9526 50.4563 48.9306 52.2044V52.2051C48.9417 53.173 48.9527 54.1409 48.9317 55.2657V62.1416C49.1543 61.9267 49.4246 61.8133 49.6779 61.707C50.1187 61.522 50.5081 61.3587 50.5053 60.7191L50.5045 60.5399C50.4955 58.4472 50.4863 56.3505 50.5026 54.1049V54.1041C50.4942 53.1932 50.4859 52.2822 50.5034 51.2135C50.4949 49.5092 50.4865 47.8049 50.5038 45.9426V45.9412C50.4951 44.4633 50.4865 42.9853 50.5013 41.3493C50.4932 39.8716 50.485 38.394 50.5005 36.7932C50.5091 36.6681 50.5177 36.543 50.6383 36.4436C50.9911 36.5932 51.3439 36.7429 51.801 36.9493L51.8011 36.9494L51.8014 36.9495C52.1632 37.102 52.525 37.2545 52.9825 37.4773L52.9827 37.4773C53.345 37.6367 53.7073 37.7961 54.1278 38.056L54.1281 38.0561L54.1281 38.0562C54.4513 38.1744 54.7745 38.2928 55.2008 38.4802C55.2902 38.8162 55.3796 39.1522 55.4609 39.5834V39.5853C55.4631 41.2527 55.4653 42.9201 55.4482 44.7245C55.4538 45.4656 55.4595 46.2067 55.4417 47.0994C55.4497 47.5592 55.4576 48.0189 55.442 48.6351C55.45 49.3765 55.458 50.118 55.4424 51.0171V57.6256L55.7387 57.7932C56.1516 57.3052 56.5646 56.8171 57.0314 56.284C57.0652 56.2436 57.0664 56.2049 57.0714 56.0496L57.073 56.0013C57.0532 53.7763 57.0333 51.5513 57.0549 49.2067C57.1514 48.8728 57.2478 48.5388 57.4427 48.2856L61.9717 50.3994C62.0271 50.3191 62.0807 50.2436 62.1324 50.1709L62.1326 50.1707C62.2377 50.0227 62.3349 49.886 62.4216 49.7431C63.4647 48.0237 64.3396 46.2691 65.0441 44.4794C61.8939 53.2673 55.1757 60.3562 46.6355 64C55.1765 60.3559 61.8953 53.266 65.0451 44.4769C65.0447 44.4777 65.0444 44.4785 65.0441 44.4794C66.3102 40.9473 66.9999 37.1409 66.9999 33.1733C66.9999 24.3476 63.587 16.319 58.0089 10.3354C58.0093 10.3358 58.0096 10.3362 58.01 10.3366C56.4809 8.69609 54.789 7.20933 52.9601 5.90195C54.7885 7.20902 56.48 8.6954 58.0089 10.3354C57.0968 9.41589 56.1188 8.53644 55.0758 7.69743C46.7358 0.989011 37.191 -1.3072 26.681 0.701713C21.934 1.60909 17.6597 3.38049 13.8993 6.00294C5.47918 12.0879 0 21.9907 0 33.1733C0 38.6706 1.32411 43.8586 3.6708 48.4358C4.00606 49.0289 4.36206 49.6155 4.73835 50.1958C6.18417 49.4637 7.60889 48.7424 9.14809 47.9482L9.7209 47.7977C9.7209 48.3746 9.7209 48.8518 9.69761 49.4869C9.69711 50.0509 9.70436 50.6155 9.71162 51.18C9.72868 52.507 9.74573 53.8339 9.66201 55.1545C9.58361 56.3913 10.3065 56.8922 11.1698 57.4902L11.2207 57.5255C11.2207 55.1244 11.2207 52.8216 11.2534 50.3628V50.3625C11.2422 49.5077 11.231 48.6528 11.2525 47.6477V47.6475C11.2419 47.1875 11.2314 46.7275 11.2527 46.1307C11.2031 45.5024 11.1535 44.8742 11.2223 44.1568C11.2223 42.5363 11.2223 40.9157 11.2544 39.1666C11.414 38.8657 11.5737 38.5647 11.8536 38.2987L11.8538 38.2987C12.1531 38.1665 12.4525 38.0344 12.8703 37.8893L12.8704 37.8892C13.3768 37.637 13.8832 37.3848 14.5067 37.1228C14.9419 36.9274 15.3771 36.732 15.9323 36.5274C15.9566 36.5872 15.987 36.6469 16.0175 36.7066L16.0175 36.7067C16.0835 36.8359 16.1494 36.9651 16.1529 37.096C16.1846 38.2836 16.1864 39.4721 16.1756 40.8159V40.8162C16.1817 41.5002 16.1877 42.1841 16.1718 42.9509C16.1789 42.9786 16.1859 43.0063 16.1722 43.1921C16.1774 44.1042 16.1826 45.0163 16.1678 46.0162C16.1755 46.0452 16.1832 46.0741 16.1735 46.2147C16.1793 46.2895 16.1851 46.3643 16.1613 46.5638C16.171 46.6907 16.1806 46.8176 16.1725 47.059C16.1784 47.1358 16.1843 47.2126 16.1606 47.414C16.1703 47.541 16.1799 47.6679 16.1702 47.9535C16.1788 49.204 16.1873 50.4545 16.1732 51.8206C16.18 51.8985 16.1868 51.9764 16.165 52.204C16.1739 52.6603 16.1828 53.1165 16.1698 53.6882C16.1764 53.766 16.183 53.8438 16.1667 54.0042C16.1742 54.0318 16.1817 54.0593 16.1674 54.2154L16.1674 54.2154C16.177 54.3445 16.1865 54.4737 16.1724 54.728C16.179 54.8548 16.1855 54.9817 16.1676 55.1946C16.1757 55.2233 16.1838 55.2519 16.1716 55.4387L16.1716 55.4421C16.1859 57.3148 16.2002 59.1876 16.2088 61.1304C16.2334 61.1807 16.2729 61.199 16.4313 61.2505L17.7934 61.9806C17.7934 59.5445 17.7934 57.2451 17.8274 54.7891V54.7888C17.8176 53.8769 17.8078 52.9651 17.8305 51.9145C17.826 51.6773 17.8215 51.4401 17.8392 51.1133C17.8304 51.0839 17.8216 51.0544 17.8299 50.8999C17.8242 50.7741 17.8184 50.6484 17.8382 50.4337C17.8297 50.404 17.8212 50.3743 17.8286 50.2343C17.8244 50.1604 17.8201 50.0864 17.8376 49.9229C17.8289 49.8935 17.8202 49.864 17.8268 49.7233C17.8221 49.6487 17.8175 49.5741 17.8465 49.3737L17.8465 49.3736C17.8348 49.245 17.8231 49.1164 17.8266 48.8763C17.8212 48.8016 17.8159 48.7269 17.8354 48.5631C17.8271 48.5334 17.8188 48.5037 17.8273 48.349C17.8213 48.2233 17.8153 48.0977 17.8338 47.8828C17.8254 47.8531 17.817 47.8234 17.8251 47.6538V47.6537C17.8142 47.4199 17.8033 47.1861 17.8257 46.7954C17.8153 45.2609 17.8049 43.7264 17.8281 42.0351C17.8257 39.9318 17.8234 37.8285 17.9074 35.6374L17.9075 35.6373C18.5695 35.321 19.2316 35.0047 20.0164 34.6845C20.7667 34.3394 21.517 33.9943 22.3889 33.6374C22.4162 33.7046 22.4501 33.7715 22.4841 33.8384C22.5576 33.9832 22.631 34.128 22.6369 34.2754C22.6873 35.544 22.7041 36.8138 22.6851 38.2418L22.6851 38.2431C22.707 39.8449 22.7289 41.4468 22.7004 43.1992V43.1998C22.7115 44.7163 22.7225 46.2329 22.6726 47.8469V47.847L22.6726 47.847C22.6866 47.957 22.7006 48.067 22.6996 48.2719C22.7056 48.3357 22.7116 48.3994 22.6751 48.5625C22.6861 48.5968 22.6971 48.6311 22.6937 48.8201C22.6958 49.9984 22.698 51.1768 22.6537 52.455C22.6774 52.5571 22.701 52.6592 22.7212 52.8978V52.8988C22.7339 54.318 22.7465 55.7371 22.7281 57.3123C22.7226 58.3247 22.7171 59.3371 22.6556 60.4079C22.6303 60.4584 22.6249 60.5111 22.6194 60.7221C22.619 60.982 22.6221 61.2421 22.6252 61.5022L22.6252 61.5025C22.6325 62.1183 22.6399 62.7341 22.6018 63.3471C22.5683 63.8873 22.7905 64.1192 23.267 64.2248C23.4877 64.2737 23.7061 64.3325 23.9422 64.3959L23.9423 64.3959C24.0531 64.4257 24.1678 64.4565 24.2884 64.4879C24.2884 62.226 24.2884 60.0304 24.3162 57.6769C24.3069 56.0855 24.2976 54.494 24.3146 52.7447C24.3057 51.437 24.2969 50.1293 24.3143 48.6637C24.3056 47.1298 24.2969 45.5958 24.3143 43.9036C24.3069 42.4259 24.2995 40.9481 24.3156 39.3118C24.3075 35.1099 24.2995 30.9081 24.3071 26.549C24.308 26.377 24.3047 26.2045 24.3014 26.0319L24.3014 26.0318C24.2934 25.6097 24.2854 25.1876 24.338 24.7733C24.3721 24.5049 24.5839 24.1457 24.8147 24.0346C26.1083 23.4119 27.4282 22.8427 28.7523 22.2865C28.8803 22.2327 29.0983 22.3933 29.2511 22.6118C29.2593 23.3539 29.2675 24.096 29.2564 24.9951C29.2619 25.6805 29.2673 26.3658 29.2544 27.2087C29.2579 28.0041 29.2614 28.7996 29.2516 29.7548C29.256 31.8603 29.2604 33.9659 29.2544 36.2284V36.2302L29.2544 36.2318C29.2594 37.0853 29.2643 37.939 29.2589 38.9505C29.2631 40.1441 29.2672 41.3378 29.2563 42.6892L29.2563 42.692C29.2623 43.7157 29.2682 44.7396 29.2578 45.921L29.2579 45.924C29.2639 47.1738 29.2699 48.4236 29.2578 49.831C29.2638 51.1382 29.2698 52.4454 29.2559 53.9104V53.9118C29.2627 55.1624 29.2695 56.4131 29.2553 57.8207C29.2628 58.6182 29.2704 59.4158 29.2553 60.3711V65.4444L30.7895 65.6605C30.7895 63.8543 30.7895 62.1175 30.8273 60.2274V60.2271C30.8305 59.5491 30.8337 58.8712 30.8995 58.1139L30.8994 58.1138C30.878 57.9563 30.8566 57.7988 30.8087 57.6293C30.8087 57.6293 30.7917 57.6529 30.8296 57.4982C30.8166 56.3048 30.8036 55.1115 30.8255 53.762C30.8151 52.4529 30.8047 51.1438 30.8239 49.6781V49.6769C30.8131 48.4259 30.8023 47.1748 30.8154 45.7665L30.8154 45.7641C30.8068 44.7403 30.7982 43.7165 30.808 42.5347C30.799 41.4546 30.7899 40.3745 30.7942 39.1375C30.7931 38.4539 30.792 37.7704 30.8822 36.9805C30.8881 36.901 30.8956 36.8215 30.9031 36.742L30.9032 36.7407C30.9194 36.5685 30.9357 36.3962 30.936 36.2238L30.9362 36.1181C30.9401 33.9564 30.944 31.7946 30.9298 29.633C30.9288 29.4726 30.8964 29.3124 30.8611 29.1378L30.8611 29.1376C30.832 28.9937 30.801 28.84 30.7838 28.6682C30.7849 28.6381 30.7859 28.608 30.791 28.4971C30.791 28.4971 30.7877 28.4163 30.7919 28.2612ZM36.1983 66.5662C35.3082 66.6371 34.4083 66.6733 33.4999 66.6733C33.4999 66.6733 33.5 66.6733 33.5 66.6733C34.4083 66.6733 35.3082 66.6371 36.1983 66.5662Z" fill="white"/>
</svg>
