<svg width="30" height="31" viewBox="0 0 30 31" fill="none" xmlns="http://www.w3.org/2000/svg">
<g clip-path="url(#clip0_18_730)">
<path d="M20.3379 1.48887C20.7891 0.362693 21.9785 -0.236721 23.1152 0.0841777L28.2715 1.5373C29.291 1.82793 30 2.78457 30 3.87441C30 18.8537 18.2461 30.9994 3.75 30.9994C2.69531 30.9994 1.76953 30.2668 1.48828 29.2133L0.0820312 23.8852C-0.228516 22.7105 0.351562 21.4814 1.44141 21.0152L7.06641 18.5934C8.02148 18.1816 9.12891 18.4662 9.7793 19.2957L12.1465 22.2807C16.2715 20.2645 19.6113 16.8133 21.5625 12.5508L18.6738 10.1107C17.8711 9.43262 17.5957 8.29433 17.9941 7.30742L20.3379 1.49492V1.48887Z" fill="#FFD700"/>
</g>
<defs>
<clipPath id="clip0_18_730">
<rect width="30" height="31" fill="white" transform="matrix(-1 0 0 1 30 0)"/>
</clipPath>
</defs>
</svg>
