<svg width="29" height="24" viewBox="0 0 29 24" fill="none" xmlns="http://www.w3.org/2000/svg">
<g clip-path="url(#clip0_10_53)">
<path d="M16.0316 2.44693L14.9622 0.284956C14.7855 -0.0904493 14.2327 -0.104018 14.0378 0.284956L12.9684 2.44693L10.5986 2.78615C10.1772 2.84947 9.99594 3.36961 10.3086 3.68169L12.0305 5.35518L11.6227 7.71164C11.5592 8.13228 11.9942 8.45793 12.3839 8.26344L14.5091 7.14175L16.6206 8.24535C17.0103 8.43984 17.4498 8.11418 17.3819 7.69355L16.9741 5.33709L18.6959 3.68169C19.0041 3.37413 18.8273 2.85399 18.4059 2.78615L16.0361 2.44693H16.0316ZM11.6 11.5788C10.798 11.5788 10.15 12.2255 10.15 13.0261V21.7102C10.15 22.5107 10.798 23.1575 11.6 23.1575H17.4C18.202 23.1575 18.85 22.5107 18.85 21.7102V13.0261C18.85 12.2255 18.202 11.5788 17.4 11.5788H11.6ZM1.45 14.4735C0.647969 14.4735 0 15.1202 0 15.9208V21.7102C0 22.5107 0.647969 23.1575 1.45 23.1575H7.25C8.05203 23.1575 8.7 22.5107 8.7 21.7102V15.9208C8.7 15.1202 8.05203 14.4735 7.25 14.4735H1.45ZM20.3 18.8155V21.7102C20.3 22.5107 20.948 23.1575 21.75 23.1575H27.55C28.352 23.1575 29 22.5107 29 21.7102V18.8155C29 18.0149 28.352 17.3681 27.55 17.3681H21.75C20.948 17.3681 20.3 18.0149 20.3 18.8155Z" fill="#FFD700"/>
</g>
<defs>
<clipPath id="clip0_10_53">
<rect width="29" height="23.1575" fill="white"/>
</clipPath>
</defs>
</svg>
