<svg width="29" height="29" viewBox="0 0 29 29" fill="none" xmlns="http://www.w3.org/2000/svg">
<g clip-path="url(#clip0_27_213)">
<path d="M4.45197 0.283152C3.91389 -0.135989 3.14924 -0.0850125 2.66213 0.396433L0.396503 2.66206C-0.0849428 3.1435 -0.135919 3.90815 0.277557 4.4519L4.80881 10.3425C5.06369 10.6767 5.46584 10.8749 5.88498 10.8749H8.94924L15.1231 17.0488C14.2904 18.6914 14.5567 20.7531 15.933 22.1238L22.2768 28.4675C22.9848 29.1755 24.1346 29.1755 24.8426 28.4675L28.4676 24.8425C29.1756 24.1345 29.1756 22.9847 28.4676 22.2767L22.1238 15.933C20.7531 14.5623 18.6914 14.2904 17.0488 15.123L10.875 8.94917V5.89057C10.875 5.46577 10.6768 5.06928 10.3426 4.8144L4.45197 0.283152ZM1.12717 22.4353C0.407831 23.1546 1.81635e-05 24.1345 1.81635e-05 25.1541C1.81635e-05 27.2781 1.72189 28.9999 3.84592 28.9999C4.86545 28.9999 5.84533 28.5921 6.56467 27.8728L13.2369 21.2005C12.7951 20.0167 12.7272 18.731 13.033 17.5132L9.5383 14.0185L1.12717 22.4353ZM29 8.1562C29 7.56147 28.9377 6.98374 28.8188 6.42866C28.6828 5.79428 27.9069 5.63003 27.4481 6.08882L23.8287 9.70815C23.6588 9.87807 23.4266 9.97436 23.1887 9.97436H19.9375C19.4391 9.97436 19.0313 9.56655 19.0313 9.06811V5.81128C19.0313 5.57339 19.1276 5.34116 19.2975 5.17124L22.9168 1.5519C23.3756 1.09311 23.2113 0.317136 22.577 0.181198C22.0162 0.0622532 21.4385 -5.15371e-05 20.8438 -5.15371e-05C16.3408 -5.15371e-05 12.6875 3.65327 12.6875 8.1562V8.20151L17.519 13.033C19.558 12.5175 21.8123 13.0613 23.4096 14.6585L24.2988 15.5478C27.0742 14.2451 29 11.4244 29 8.1562ZM3.17189 24.4687C3.17189 24.1082 3.31511 23.7624 3.57004 23.5075C3.82498 23.2525 4.17074 23.1093 4.53127 23.1093C4.8918 23.1093 5.23756 23.2525 5.49249 23.5075C5.74742 23.7624 5.89064 24.1082 5.89064 24.4687C5.89064 24.8292 5.74742 25.175 5.49249 25.4299C5.23756 25.6849 4.8918 25.8281 4.53127 25.8281C4.17074 25.8281 3.82498 25.6849 3.57004 25.4299C3.31511 25.175 3.17189 24.8292 3.17189 24.4687Z" fill="#FFD700"/>
</g>
<defs>
<clipPath id="clip0_27_213">
<rect width="29" height="29" fill="white"/>
</clipPath>
</defs>
</svg>
