<svg width="30" height="31" viewBox="0 0 30 31" fill="none" xmlns="http://www.w3.org/2000/svg">
<path d="M25.5067 5.8791C22.7009 3.33613 18.9643 1.9375 14.9933 1.9375C6.79687 1.9375 0.127232 7.96797 0.127232 15.3789C0.127232 17.7463 0.810268 20.0592 2.10938 22.0996L0 29.0625L7.8817 27.1916C10.0513 28.2633 12.4955 28.8264 14.9866 28.8264H14.9933C23.183 28.8264 30 22.7959 30 15.385C30 11.7945 28.3125 8.42207 25.5067 5.8791ZM14.9933 26.5619C12.7701 26.5619 10.5937 26.023 8.69866 25.0059L8.25 24.7637L3.57589 25.8717L4.82143 21.7484L4.52679 21.3246C3.28795 19.5445 2.63839 17.492 2.63839 15.3789C2.63839 9.22129 8.18303 4.20801 15 4.20801C18.3013 4.20801 21.4018 5.37051 23.7321 7.48359C26.0625 9.59668 27.4955 12.4 27.4888 15.385C27.4888 21.5486 21.8036 26.5619 14.9933 26.5619ZM21.7701 18.1943C21.4018 18.0248 19.5737 17.2135 19.2321 17.1045C18.8906 16.9895 18.6429 16.935 18.3951 17.274C18.1473 17.6131 17.4375 18.3639 17.2165 18.5939C17.0022 18.818 16.7812 18.8482 16.4129 18.6787C14.2299 17.6918 12.7969 16.9168 11.3571 14.6826C10.9754 14.0893 11.7388 14.1316 12.4487 12.848C12.5692 12.624 12.5089 12.4303 12.4152 12.2607C12.3214 12.0912 11.5781 10.4383 11.2701 9.76621C10.9688 9.1123 10.6607 9.20312 10.433 9.19102C10.2188 9.17891 9.97098 9.17891 9.72321 9.17891C9.47545 9.17891 9.07366 9.26367 8.73214 9.59668C8.39062 9.93574 7.43304 10.7471 7.43304 12.4C7.43304 14.0529 8.76562 15.6514 8.94643 15.8754C9.13393 16.0994 11.5647 19.49 15.2946 20.9492C17.6518 21.8695 18.5759 21.9482 19.7545 21.7908C20.471 21.6939 21.9509 20.9795 22.2589 20.1924C22.567 19.4053 22.567 18.7332 22.4732 18.5939C22.3862 18.4426 22.1384 18.3578 21.7701 18.1943Z" fill="#FFD700"/>
</svg>
