<svg width="341" height="337" viewBox="0 0 341 337" fill="none" xmlns="http://www.w3.org/2000/svg">
<path d="M42.3173 221.906C46.8489 222.399 48.4408 224.135 48.4586 228.436C48.4666 230.363 48.4599 232.29 48.4599 234.301C46.1663 234.301 44.0594 234.301 41.7526 234.301C41.7526 232.178 41.8189 230.117 41.7083 228.066C41.6788 227.52 41.107 227.004 40.7842 226.473C40.3997 227.019 39.7226 227.545 39.6836 228.114C39.5471 230.106 39.6307 232.113 39.6307 234.251C37.453 234.251 35.3518 234.251 32.97 234.251C32.97 232.276 33.0497 230.233 32.9205 228.203C32.8827 227.61 32.2504 227.054 31.8906 226.481C31.5073 227.04 30.8338 227.578 30.7935 228.161C30.6558 230.151 30.7407 232.157 30.7407 234.271C28.5468 234.271 26.4437 234.271 24.1361 234.271C24.1361 231.609 23.9286 228.892 24.2363 226.234C24.3627 225.142 25.3908 223.865 26.3697 223.215C29.1783 221.351 32.2009 221.484 35.2432 222.872C35.8231 223.137 36.6257 223.084 37.2879 222.966C38.9181 222.675 40.5263 222.262 42.3173 221.906Z" fill="white"/>
<path d="M273.325 227.597C272.812 227.161 272.287 226.67 271.82 226.72C271.514 226.753 271.088 227.561 271.069 228.036C270.986 230.088 271.033 232.145 271.033 234.291C268.79 234.291 266.69 234.291 264.495 234.291C264.495 228.78 264.495 223.313 264.495 217.723C266.598 217.723 268.694 217.723 270.962 217.723C270.962 219.278 270.962 220.868 270.962 222.357C272.517 222.204 273.917 221.907 275.304 221.962C278.234 222.08 279.925 223.904 279.966 226.815C280.001 229.263 279.973 231.712 279.973 234.272C277.777 234.272 275.676 234.272 273.338 234.272C273.338 232.119 273.338 229.945 273.325 227.597Z" fill="white"/>
<path d="M109.665 286.684C102.693 286.987 103.833 285.806 103.799 281.302C103.787 279.75 103.797 278.197 103.797 276.469C104.404 276.249 105.033 276.02 105.985 275.674C105.985 277.803 105.946 279.703 105.993 281.601C106.081 285.164 105.591 284.697 109.265 284.547C109.01 282.526 108.572 280.215 110.953 279.267C111.969 278.862 113.621 279.072 114.56 279.669C116.254 280.748 116.088 282.633 115.543 284.4C118.213 284.942 118.429 284.827 119.382 282.485C119.986 281.001 121.129 280.251 122.708 280.294C124.372 280.339 125.552 281.184 125.978 282.815C126.272 283.938 126.668 284.628 128.026 284.637C130.354 284.652 130.538 284.565 130.547 282.157C130.553 280.285 130.548 278.412 130.548 276.437C131.173 276.219 131.769 276.011 132.671 275.696C132.671 278.096 132.768 280.339 132.643 282.569C132.528 284.622 133.712 284.619 135.221 284.675C136.831 284.735 137.456 284.198 137.382 282.578C137.291 280.578 137.36 278.569 137.36 276.458C138.034 276.226 138.693 275.999 139.554 275.703C139.554 278.56 139.747 281.274 139.449 283.934C139.345 284.864 138.17 286.139 137.241 286.404C135.823 286.808 134.194 286.466 132.654 286.452C131.944 286.445 131.232 286.444 130.523 286.48C130.139 286.5 129.758 286.66 129.376 286.659C127.395 286.653 125.394 286.03 123.581 287.676C123.102 288.111 121.366 287.843 120.745 287.291C119.694 286.357 118.76 286.584 117.607 286.642C115.029 286.773 112.44 286.683 109.665 286.684ZM123.838 285.166C123.825 284.479 124.025 283.674 123.731 283.142C123.498 282.719 122.66 282.63 122.09 282.393C121.88 283.324 121.321 284.353 121.549 285.159C121.829 286.153 122.835 286.309 123.838 285.166ZM111.884 281.052C110.857 281.952 110.951 283.003 111.676 283.962C111.889 284.243 112.938 284.339 113.009 284.205C113.351 283.561 113.726 282.769 113.617 282.107C113.544 281.657 112.692 281.335 111.884 281.052Z" fill="white"/>
<path d="M61.914 232.024C61.9141 232.918 61.9141 233.624 61.9141 234.289C58.4121 235.433 53.6894 233.323 52.2723 231.479C50.6869 229.415 50.7732 226.681 52.5905 224.753C55.9207 221.221 64.0945 220.727 67.6136 224.069C68.6322 225.037 69.2969 226.671 69.5324 228.097C69.855 230.05 69.613 232.096 69.613 234.244C67.4849 234.244 65.3797 234.244 62.9866 234.244C62.9866 232.639 63.0792 230.916 62.944 229.21C62.8844 228.458 62.4914 227.231 62.0239 227.113C60.9485 226.841 59.7096 227.002 58.5937 227.247C58.295 227.312 57.9429 228.744 58.0526 228.809C58.9304 229.327 59.9057 229.688 60.8697 230.047C61.087 230.128 61.3771 230.014 61.8264 229.971C61.8566 230.614 61.8853 231.225 61.914 232.024Z" fill="white"/>
<path d="M93.5838 234.506C91.6058 233.716 89.5727 233.25 88.0282 232.118C85.4375 230.219 85.5007 226.739 87.8215 224.51C91.2016 221.265 98.8704 220.816 102.395 223.898C103.456 224.825 104.268 226.411 104.508 227.813C104.861 229.875 104.599 232.042 104.599 234.275C102.413 234.275 100.314 234.275 97.9808 234.275C97.9808 232.581 98.0775 230.853 97.936 229.146C97.8743 228.402 97.4418 227.189 96.9712 227.08C95.8922 226.83 94.6597 227.016 93.55 227.279C93.2597 227.348 92.9415 228.786 93.0601 228.854C93.9463 229.36 94.9321 229.7 95.9036 230.044C96.1239 230.122 96.4103 230.014 96.7887 229.98C96.7887 231.466 96.7887 232.917 96.7887 234.53C95.7646 234.53 94.7564 234.53 93.5838 234.506Z" fill="white"/>
<path d="M179.83 222.423C183.714 224.013 184.709 225.496 184.712 229.526C184.713 231.069 184.712 232.612 184.712 234.27C182.522 234.27 180.422 234.27 178.079 234.27C178.079 232.59 178.175 230.864 178.035 229.158C177.973 228.412 177.548 227.197 177.078 227.086C176 226.832 174.766 227.013 173.655 227.273C173.363 227.341 173.039 228.777 173.156 228.845C174.04 229.354 175.023 229.698 175.993 230.045C176.213 230.124 176.5 230.014 176.883 229.979C176.883 231.463 176.883 232.911 176.883 234.547C173.4 234.863 170.188 234.31 167.638 231.731C165.433 229.502 165.808 226.137 168.399 224.097C171.432 221.709 174.938 221.609 178.548 222.118C178.93 222.172 179.303 222.289 179.83 222.423Z" fill="white"/>
<path d="M282.873 228.183C283.117 225.194 285.012 223.7 287.393 222.75C290.644 221.454 293.981 221.52 297.238 222.735C300.124 223.811 301.339 225.724 301.358 228.835C301.368 230.629 301.36 232.424 301.36 234.3C299.105 234.3 297.006 234.3 294.726 234.3C294.726 232.519 294.849 230.779 294.671 229.071C294.59 228.297 294.033 227.092 293.476 226.954C292.475 226.707 291.282 227.016 290.236 227.321C289.947 227.405 289.655 228.682 289.77 228.753C290.634 229.285 291.588 229.681 292.54 230.05C292.805 230.152 293.16 230.02 293.552 229.99C293.552 231.508 293.552 232.964 293.552 234.398C288.682 235.436 282.629 232.366 282.873 228.183Z" fill="white"/>
<path d="M207.678 226.599C206.364 226.768 205.063 227.174 205.419 228.5C205.606 229.197 206.987 229.617 207.88 230.058C208.179 230.205 208.637 230.025 209.152 229.985C209.152 231.46 209.152 232.906 209.152 234.547C205.675 234.868 202.474 234.301 199.914 231.738C197.955 229.777 198.039 226.788 199.953 224.756C203.274 221.231 211.395 220.744 214.962 224.039C215.922 224.926 216.686 226.377 216.875 227.666C217.187 229.803 216.959 232.019 216.959 234.293C214.746 234.293 212.647 234.293 210.352 234.293C210.352 232.666 210.301 231.069 210.365 229.476C210.437 227.668 209.741 226.623 207.678 226.599Z" fill="white"/>
<path d="M240.515 230.863C240.513 229.703 240.655 228.701 240.45 227.776C240.335 227.26 239.643 226.872 239.211 226.426C238.802 226.893 238.071 227.34 238.041 227.831C237.91 229.944 237.985 232.07 237.985 234.287C235.754 234.287 233.654 234.287 231.375 234.287C231.375 231.832 231.059 229.339 231.495 226.985C231.751 225.599 232.969 224.12 234.164 223.236C236.474 221.525 239.286 221.559 241.996 222.161C245.696 222.983 247.184 224.97 247.198 228.768C247.204 230.566 247.199 232.364 247.199 234.385C245.985 234.385 244.907 234.385 243.83 234.385C242.798 234.385 241.767 234.385 240.515 234.385C240.515 233.212 240.515 232.132 240.515 230.863Z" fill="white"/>
<path d="M154.261 229.388C154.262 231.111 154.262 232.65 154.262 234.285C151.998 234.285 149.889 234.285 147.586 234.285C147.586 232.289 147.589 230.296 147.584 228.304C147.582 227.364 147.547 226.249 146.257 226.511C145.758 226.612 145.156 227.625 145.108 228.261C144.959 230.238 145.053 232.233 145.053 234.302C142.792 234.302 140.692 234.302 138.434 234.302C138.434 231.861 138.341 229.481 138.462 227.113C138.568 225.023 139.997 223.77 141.734 222.866C144.024 221.675 146.487 221.614 148.926 222.117C152.809 222.918 154.258 224.94 154.261 229.388Z" fill="white"/>
<path d="M241.211 281.398C241.212 279.66 241.212 278.11 241.212 276.452C241.898 276.216 242.556 275.99 243.417 275.694C243.417 278.054 243.523 280.246 243.384 282.422C243.272 284.187 243.762 284.978 245.633 284.623C246.303 284.496 247.017 284.603 247.831 284.603C247.892 283.39 247.947 282.311 248.005 281.166C248.626 280.97 249.227 280.779 250.054 280.518C250.054 281.948 250.054 283.205 250.054 284.56C250.921 284.56 251.596 284.56 252.241 284.56C253.159 283.054 251.079 280.117 254.672 279.98C254.672 281.458 254.672 282.928 254.672 284.555C255.457 284.6 256.133 284.638 256.746 284.673C258.119 283.135 255.429 279.915 259.3 279.386C259.3 281.151 259.3 282.841 259.3 284.615C260.165 284.615 260.808 284.544 261.428 284.629C263.135 284.863 263.863 284.266 263.94 282.446C264.054 279.754 265.708 278.53 268.176 279.005C270.266 279.407 271.266 281.438 270.682 284.093C270.193 286.31 268.437 287.177 266.067 286.58C265.215 286.365 264.247 286.643 263.332 286.644C256.734 286.658 250.136 286.676 243.539 286.65C242.064 286.644 241.309 285.747 241.236 284.303C241.19 283.399 241.217 282.492 241.211 281.398ZM266.742 281.094C266.582 282.036 266.295 282.986 266.352 283.915C266.367 284.153 267.473 284.323 268.077 284.525C268.259 283.75 268.68 282.928 268.54 282.217C268.443 281.727 267.566 281.392 266.742 281.094Z" fill="white"/>
<path d="M304.472 220.418C304.472 219.403 304.472 218.58 304.472 217.681C306.711 217.681 308.762 217.681 311.064 217.681C311.064 219.134 311.064 220.634 311.064 222.222C312.189 222.272 313.07 222.312 314.051 222.355C314.051 223.93 314.051 225.445 314.051 227.025C313.097 227.09 312.218 227.151 311.252 227.217C311.122 229.377 312.602 229.615 314.154 229.785C314.154 231.327 314.154 232.8 314.156 234.273C308.954 235.433 304.492 231.997 304.473 226.811C304.465 224.744 304.472 222.676 304.472 220.418Z" fill="white"/>
<path d="M179.264 281.992C179.841 281.353 180.417 280.888 181.404 280.089C181.404 281.914 181.404 283.158 181.404 284.561C182.286 284.605 182.963 284.64 183.71 284.678C183.87 283.213 183.933 281.818 184.239 280.479C184.305 280.191 185.248 280.103 185.983 279.858C185.983 281.447 185.983 282.897 185.983 284.506C186.882 284.506 187.613 284.506 188.266 284.506C189.505 283.036 186.863 280.025 190.596 279.373C190.596 281.095 190.596 282.723 190.596 284.623C192.01 284.623 193.223 284.739 194.391 284.562C194.825 284.497 195.339 283.797 195.487 283.291C195.678 282.634 195.62 281.87 195.527 281.171C195.334 279.724 195.845 278.938 197.56 278.998C197.56 280.762 197.726 282.614 197.513 284.421C197.311 286.129 195.864 286.636 194.337 286.655C190.651 286.701 186.965 286.68 183.279 286.683C180.691 286.685 178.101 286.731 175.515 286.668C173.229 286.613 172.642 285.981 172.624 283.751C172.604 281.358 172.619 278.964 172.619 276.428C173.267 276.215 173.909 276.003 174.83 275.7C174.83 278.174 174.918 280.416 174.801 282.648C174.716 284.255 175.193 284.934 176.865 284.637C177.554 284.514 178.282 284.617 179.262 284.617C179.262 283.794 179.262 282.98 179.264 281.992Z" fill="white"/>
<path d="M239.037 282.384C239.172 283.846 239.253 285.168 239.346 286.686C235.479 286.686 231.94 286.649 228.402 286.719C227.737 286.733 226.832 286.982 226.462 287.455C224.75 289.64 222.51 290.425 219.626 289.624C217.408 289.007 216.396 287.52 216.218 284.602C216.198 284.281 216.215 283.958 216.215 283.461C216.835 283.251 217.472 283.036 218.345 282.741C218.389 283.54 218.422 284.149 218.456 284.758C218.574 286.88 219.551 287.831 221.614 287.836C223.641 287.841 224.585 286.861 224.638 284.685C224.654 284.039 224.646 283.392 224.648 282.746C224.649 282.103 224.648 281.46 224.648 280.703C225.266 280.496 225.862 280.296 226.791 279.984C226.791 280.85 226.791 281.526 226.791 282.201C226.791 282.909 226.791 283.618 226.791 284.496C230.191 284.496 233.502 284.496 236.816 284.496C236.91 281.894 234.947 280.66 232.452 281.914C231.444 282.421 230.827 282.466 230.263 281.473C233.439 276.701 234.866 275.635 237.591 276.103C236.609 277.17 235.667 278.193 235.038 278.876C236.41 280.046 237.697 281.144 239.037 282.384Z" fill="white"/>
<path d="M195.208 223.502C195.208 227.178 195.208 230.659 195.208 234.262C193.033 234.262 190.934 234.262 188.707 234.262C188.707 228.804 188.707 223.295 188.707 217.693C190.828 217.693 192.922 217.693 195.208 217.693C195.208 219.597 195.208 221.452 195.208 223.502Z" fill="white"/>
<path d="M115.11 221.18C115.11 225.629 115.11 229.885 115.11 234.262C112.933 234.262 110.835 234.262 108.608 234.262C108.608 228.802 108.608 223.292 108.608 217.691C110.732 217.691 112.827 217.691 115.11 217.691C115.11 218.827 115.11 219.907 115.11 221.18Z" fill="white"/>
<path d="M83.2372 227.307C82.7434 227.782 82.173 228.178 82.0992 228.652C81.4512 232.817 78.585 234.248 74.8635 234.63C73.9131 234.727 72.9441 234.644 71.8976 234.644C71.8976 233.079 71.8976 231.545 71.8976 229.775C74.4236 230.168 75.2391 228.745 75.3467 226.546C75.4579 224.272 77.1282 223.28 78.9846 222.803C80.7069 222.36 82.5392 222.345 84.6334 222.107C84.6334 223.648 84.734 224.924 84.5763 226.166C84.5243 226.576 83.805 226.901 83.2372 227.307Z" fill="white"/>
<path d="M260.357 227.559C260.159 227.765 260.059 227.861 260.016 227.978C257.885 233.72 255.962 234.98 249.654 234.658C249.654 233.102 249.654 231.534 249.654 229.759C252.217 230.195 252.912 228.653 253.047 226.495C253.19 224.222 254.871 223.257 256.728 222.79C258.45 222.358 260.279 222.346 262.208 222.133C262.208 223.872 262.208 225.336 262.208 226.921C261.691 227.083 261.086 227.271 260.357 227.559Z" fill="white"/>
<path d="M116.261 225.106C118.121 220.727 121.809 222.336 125.33 222.032C124.136 223.713 123.148 225.103 122.102 226.576C123.637 229.083 125.175 231.593 126.886 234.386C124.485 234.386 122.33 234.439 120.183 234.339C119.772 234.32 119.255 233.772 119.017 233.341C117.897 231.311 116.786 229.269 115.839 227.157C115.619 226.665 116.054 225.881 116.261 225.106Z" fill="white"/>
<path d="M227.483 224.709C227.483 227.985 227.483 231.072 227.483 234.272C225.292 234.272 223.196 234.272 220.974 234.272C220.974 230.292 220.974 226.275 220.974 222.16C223.113 222.16 225.207 222.16 227.483 222.16C227.483 223.006 227.483 223.763 227.483 224.709Z" fill="white"/>
<path d="M133.682 234.384C131.701 234.386 129.907 234.386 128.019 234.386C128.019 230.283 128.019 226.31 128.019 222.199C130.091 222.199 132.183 222.199 134.537 222.199C134.537 226.078 134.545 229.981 134.509 233.883C134.507 234.052 134.092 234.216 133.682 234.384Z" fill="white"/>
<path d="M101.797 283.802C101.701 285.133 101.755 286.326 101.475 287.434C101.036 289.172 99.6498 289.89 97.959 289.898C96.474 289.905 95.1216 289.554 94.9524 287.542C96.433 287.646 98.09 288.795 99.3166 286.942C95.7998 286.543 94.5097 285.42 94.4753 282.804C94.4459 280.571 95.7816 278.912 97.7674 278.715C99.9124 278.503 101.259 279.657 101.664 282.083C101.749 282.591 101.755 283.111 101.797 283.802ZM98.147 280.65C96.7451 281.389 96.1305 282.973 96.994 284.052C97.3145 284.453 98.2678 284.743 98.7242 284.561C99.8184 284.125 99.8679 282.234 98.9341 281.015C98.8238 280.87 98.6182 280.799 98.147 280.65Z" fill="white"/>
<path d="M199.466 286.449C199.992 285.615 200.58 284.906 201.167 284.196C201.329 284.276 201.491 284.357 201.653 284.437C201.653 282.706 201.744 280.969 201.626 279.246C201.523 277.757 201.947 276.894 203.737 276.875C203.737 279.406 203.737 281.944 203.737 284.46C205.255 284.908 205.882 284.363 205.897 283.034C205.916 281.355 205.993 279.67 205.88 277.999C205.777 276.477 206.405 275.874 208.016 275.947C208.016 278.637 208.095 281.328 207.986 284.011C207.923 285.578 206.853 286.483 205.319 286.561C203.393 286.658 201.458 286.577 199.466 286.449Z" fill="white"/>
<path d="M86.174 278.228C86.7427 277.577 87.3097 277.091 88.279 276.26C88.279 279.422 88.279 281.974 88.279 284.492C89.8241 284.896 90.4149 284.301 90.4198 282.978C90.4259 281.359 90.5198 279.733 90.3978 278.123C90.2772 276.533 90.8551 275.825 92.5525 275.96C92.5525 278.557 92.5947 281.143 92.5379 283.727C92.4988 285.5 91.44 286.484 89.7236 286.578C87.8557 286.68 85.9779 286.601 83.3898 286.601C84.4434 285.558 85.1412 284.868 86.1722 283.847C86.1722 282.389 86.1722 280.392 86.174 278.228Z" fill="white"/>
<path d="M74.67 284.666C75.1203 284.666 75.3789 284.666 75.6376 284.666C79.76 284.665 79.699 284.66 80.0688 280.517C80.1283 279.849 81.0078 279.255 81.5083 278.627C81.7007 278.727 81.893 278.828 82.0854 278.928C82.0854 280.646 82.1723 282.369 82.061 284.079C81.9493 285.795 80.7466 286.556 79.1652 286.613C76.7764 286.7 74.3829 286.672 71.9915 286.665C70.3738 286.659 69.0218 286.147 68.5812 284.406C68.1253 282.604 68.4419 281.084 70.5844 280.279C70.6266 280.796 70.6938 281.264 70.6983 281.733C70.7262 284.663 70.7216 284.663 73.7024 284.666C73.9611 284.666 74.2197 284.666 74.67 284.666Z" fill="white"/>
<path d="M146.871 286.653C145.217 286.495 144.127 285.876 143.82 284.279C143.484 282.536 143.77 281.084 145.883 280.202C145.883 281.202 145.907 282.117 145.877 283.031C145.84 284.176 146.38 284.678 147.507 284.667C149.509 284.649 151.51 284.638 153.511 284.671C154.753 284.691 155.26 284.138 155.197 282.91C155.141 281.818 155.185 280.72 155.185 279.519C155.875 279.289 156.532 279.07 157.429 278.771C157.429 280.022 157.43 281.091 157.429 282.161C157.425 285.88 156.634 286.667 152.847 286.683C150.911 286.691 148.974 286.675 146.871 286.653Z" fill="white"/>
<path d="M169.58 286.699C167.38 286.702 165.343 286.702 163.029 286.702C164.142 284.899 164.925 283.207 166.097 281.851C167.244 280.523 168.75 280.874 170.456 282.184C169.173 282.845 168.097 283.399 167.021 283.952C167.093 284.145 167.166 284.338 167.238 284.53C168.173 284.53 169.108 284.53 170.586 284.53C170.227 285.453 169.985 286.074 169.58 286.699Z" fill="white"/>
<path d="M160.857 286.692C159.702 286.847 159.345 286.465 159.367 285.428C159.43 282.472 159.39 279.514 159.39 276.42C160.042 276.203 160.683 275.991 161.576 275.695C161.576 279.349 161.583 282.788 161.552 286.227C161.551 286.381 161.205 286.532 160.857 286.692Z" fill="white"/>
<path d="M209.937 282.571C209.938 280.568 209.939 278.757 209.944 276.946C209.944 276.818 209.976 276.691 210.015 276.396C210.589 276.205 211.232 275.991 212.048 275.72C212.048 279.424 212.048 282.933 212.048 286.6C211.404 286.634 210.793 286.665 209.937 286.71C209.937 285.306 209.937 284.035 209.937 282.571Z" fill="white"/>
<path d="M42.0701 256.814C39.5958 252.715 41.3126 247.592 45.4102 247.273C42.315 249.168 42.2881 251.919 42.9501 254.758C43.4686 256.981 44.656 257.668 48.0686 258.217C46.0772 259.278 44.3588 258.904 42.0701 256.814Z" fill="white"/>
<path d="M227.243 217.999C227.855 219.967 226.678 220.56 225.237 220.908C223.414 221.349 221.245 220.677 221.06 219.426C220.959 218.741 221.47 217.68 222.048 217.237C223.569 216.075 225.379 216.406 227.243 217.999Z" fill="white"/>
<path d="M130.777 216.612C133.468 216.803 134.796 217.753 134.53 219.17C134.269 220.56 132.102 221.506 130.125 220.825C129.283 220.535 128.141 219.676 128.045 218.955C127.831 217.336 129.356 216.984 130.777 216.612Z" fill="white"/>
<path d="M140.201 252.404C139.146 254.124 139.247 257.242 140.521 258.502C139.949 258.502 139.504 258.502 139.058 258.502C138.414 258.502 137.771 258.502 137.015 258.502C138.31 257.352 138.56 248.19 137.426 246.084C138.097 246.084 138.73 246.084 139.652 246.084C139.652 248.138 139.652 250.129 139.86 252.237C140.067 252.354 140.201 252.404 140.201 252.404Z" fill="white"/>
<path d="M82.0494 251.813C81.035 251.887 80.0206 251.96 78.8425 252.045C78.8425 253.348 78.8916 254.562 78.8308 255.77C78.7437 257.501 79.3937 258.212 81.2755 257.719C81.4173 257.825 81.4355 257.815 81.4355 257.815C80.4333 258.034 79.256 258.668 78.4841 258.342C77.8622 258.08 77.6149 256.682 77.4158 255.743C77.2455 254.939 77.4782 254.055 77.346 253.237C77.2523 252.658 76.8472 252.129 76.5098 251.429C77.0244 250.853 77.738 250.055 78.6419 249.044C78.7753 249.909 78.8822 250.602 78.9966 251.344C79.9369 251.395 80.829 251.443 81.8853 251.575C82.0496 251.659 82.0494 251.813 82.0494 251.813Z" fill="white"/>
<path d="M252.355 251.813C251.341 251.886 250.326 251.96 249.148 252.045C249.148 253.348 249.197 254.562 249.136 255.77C249.049 257.501 249.699 258.212 251.581 257.718C251.723 257.824 251.741 257.815 251.741 257.815C250.739 258.034 249.562 258.668 248.79 258.342C248.168 258.08 247.92 256.682 247.721 255.743C247.55 254.939 247.782 254.056 247.652 253.237C247.561 252.666 247.161 252.145 246.815 251.429C247.33 250.853 248.043 250.055 248.947 249.044C249.081 249.909 249.188 250.602 249.302 251.344C250.242 251.395 251.135 251.443 252.191 251.575C252.355 251.658 252.355 251.813 252.355 251.813Z" fill="white"/>
<path d="M198.432 249.55C198.198 251.017 198.717 251.674 199.839 251.566C199.415 251.947 198.617 252.314 198.492 252.839C197.942 255.154 198.491 257.55 199.68 258.392C198.431 258.392 197.32 258.392 196.3 258.392C197.944 256.581 197.055 254.336 196.993 252.309C196.95 250.92 197.261 248.016 198.432 246.76C198.432 247.699 198.432 248.534 198.432 249.55Z" fill="white"/>
<path d="M278.57 257.815C277.566 258.034 276.387 258.667 275.614 258.34C274.993 258.077 274.748 256.677 274.549 255.736C274.38 254.932 274.611 254.048 274.481 253.229C274.389 252.658 273.985 252.137 273.642 251.432C274.165 250.847 274.879 250.047 275.779 249.04C275.91 249.912 276.016 250.611 276.124 251.327C276.864 251.386 277.55 251.441 278.236 251.496C278.241 251.597 278.247 251.697 278.252 251.798C277.554 251.887 276.857 251.977 275.977 252.09C275.977 253.338 276.026 254.551 275.965 255.759C275.878 257.488 276.516 258.216 278.41 257.719C278.552 257.825 278.57 257.815 278.57 257.815Z" fill="white"/>
<path d="M109.608 258.082C107.568 259.244 106.265 258.575 106.168 256.284C106.121 255.189 106.229 254.084 106.122 252.997C106.076 252.526 105.665 252.09 105.304 251.426C105.759 250.914 106.503 250.073 107.415 249.044C107.537 249.87 107.633 250.52 107.75 251.313C108.449 251.378 109.174 251.445 109.898 251.512C109.898 251.606 109.898 251.699 109.897 251.792C109.195 251.881 108.493 251.97 107.628 252.079C107.628 253.596 107.521 255.076 107.688 256.524C107.745 257.011 108.499 257.418 109.146 257.908C109.428 258.024 109.511 258.066 109.608 258.082Z" fill="white"/>
<path d="M160.147 257.434C159.241 257.817 158.233 258.633 157.46 258.451C156.787 258.292 156.172 257.069 155.914 256.202C155.65 255.314 155.926 254.279 155.82 253.324C155.754 252.731 155.418 252.167 155.161 251.475C155.602 251.402 156.256 251.294 157.141 251.148C157.141 252.569 157.136 253.837 157.142 255.105C157.154 257.682 157.403 257.909 160.035 257.563C160.162 257.469 160.147 257.434 160.147 257.434Z" fill="white"/>
<path d="M73.0394 258.718C72.1838 258.264 70.4835 258.952 71.0262 257.417C71.3734 257.596 71.9017 258.043 72.4739 258.109C72.9314 258.162 73.7078 257.864 73.8574 257.515C74.0188 257.138 73.7684 256.347 73.4257 256.044C72.815 255.504 71.8344 255.34 71.3188 254.749C70.8535 254.215 70.5241 253.262 70.6598 252.602C70.7656 252.087 71.6773 251.737 71.9342 251.541C71.9646 252.237 71.8068 252.966 72.0759 253.464C72.3083 253.895 73.1338 253.966 73.505 254.372C74.1103 255.033 75.0323 255.896 74.9499 256.567C74.855 257.339 73.8138 257.995 73.0394 258.718Z" fill="white"/>
<path d="M168.771 256.237C168.788 257.789 168.013 258.686 166.704 258.66C165.945 258.645 165.2 257.919 164.487 257.337C165.014 257.605 165.522 258.028 166.073 258.095C166.553 258.154 167.451 257.892 167.509 257.628C167.62 257.124 167.429 256.35 167.064 255.992C166.536 255.473 165.582 255.365 165.107 254.822C164.627 254.274 164.19 253.342 164.326 252.703C164.448 252.127 165.369 251.719 166.079 251.386C164.659 252.344 165.087 253.042 166.266 253.875C167.168 254.512 167.933 255.342 168.771 256.237Z" fill="white"/>
<path d="M262.854 254.227C262.77 252.074 262.513 251.902 259.895 252.248C259.868 252.077 259.842 251.905 259.815 251.734C260.822 251.633 261.986 251.18 262.789 251.537C263.517 251.862 264.048 253.014 264.303 253.905C264.559 254.795 264.306 255.821 264.398 256.775C264.433 257.136 264.811 257.465 265.311 258.238C264.714 258.267 264.017 258.3 263.204 258.094C262.921 257.769 262.753 257.685 262.674 257.45C262.8 256.479 262.838 255.66 262.879 254.738C262.873 254.5 262.863 254.363 262.854 254.227Z" fill="white"/>
<path d="M140.018 252.302C140.915 251.966 142.014 251.256 142.763 251.524C143.456 251.771 144.014 253.015 144.204 253.911C144.513 255.369 144.474 256.9 144.585 258.44C144.055 258.44 142.988 258.44 141.867 258.44C142.696 257.604 143.273 253.475 142.516 252.726C142.106 252.32 141.184 252.431 140.347 252.356C140.201 252.404 140.067 252.354 140.018 252.302Z" fill="white"/>
<path d="M223.377 251.513C224.116 251.546 224.715 251.623 225.313 251.7C223.351 251.563 222.571 252.782 222.52 254.576C222.462 256.626 223.581 257.815 226.049 258.285C224.43 259.07 223.136 258.749 222.099 257.651C220.848 256.327 220.844 254.718 221.657 253.184C221.996 252.543 222.698 252.094 223.377 251.513Z" fill="white"/>
<path d="M268.139 252.668C267.07 255.929 268.032 257.736 271.103 258.242C269.699 259.083 268.517 258.753 267.491 257.935C266.089 256.817 265.963 255.229 266.507 253.686C267.131 251.915 268.415 251.001 269.983 251.578C269.631 251.773 268.937 252.156 268.139 252.668Z" fill="white"/>
<path d="M98.8734 254.257C99.2412 257.189 99.8115 257.845 102.119 258.177C100.939 258.884 99.8182 258.829 98.7784 257.987C97.442 256.904 97.2369 255.414 97.6758 253.929C98.245 252.002 99.5707 250.999 101.192 251.555C99.9911 251.518 99.1646 252.506 98.8734 254.257Z" fill="white"/>
<path d="M286.963 252.298C285.784 254.049 285.846 257.176 287.139 258.453C286.058 258.453 285.031 258.453 284.289 258.453C284.437 257.326 284.681 256.197 284.708 255.063C284.735 253.896 284.55 252.724 284.432 251.231C285.023 251.438 285.869 251.735 286.847 252.077C286.979 252.122 286.963 252.298 286.963 252.298Z" fill="white"/>
<path d="M127.156 252.298C125.977 254.049 126.039 257.176 127.332 258.453C126.25 258.453 125.224 258.453 124.482 258.453C124.63 257.326 124.874 256.197 124.9 255.063C124.927 253.896 124.742 252.724 124.625 251.231C125.216 251.438 126.061 251.734 127.039 252.076C127.172 252.122 127.156 252.298 127.156 252.298Z" fill="white"/>
<path d="M177.703 252.298C176.524 254.049 176.586 257.176 177.879 258.453C176.797 258.453 175.771 258.453 175.03 258.453C175.177 257.326 175.421 256.197 175.448 255.063C175.475 253.896 175.29 252.724 175.172 251.231C175.763 251.438 176.609 251.734 177.587 252.076C177.719 252.122 177.703 252.298 177.703 252.298Z" fill="white"/>
<path d="M240.693 252.298C239.514 254.049 239.576 257.176 240.869 258.453C239.788 258.453 238.761 258.453 238.019 258.453C238.167 257.326 238.411 256.197 238.437 255.063C238.464 253.896 238.279 252.724 238.162 251.231C238.753 251.438 239.598 251.735 240.576 252.077C240.709 252.122 240.693 252.298 240.693 252.298Z" fill="white"/>
<path d="M64.1661 252.298C62.9874 254.049 63.0492 257.176 64.3419 258.453C63.2604 258.453 62.2338 258.453 61.4925 258.453C61.6402 257.326 61.8841 256.197 61.9105 255.063C61.9376 253.896 61.7526 252.724 61.635 251.231C62.2261 251.438 63.0716 251.735 64.0495 252.076C64.182 252.122 64.1661 252.298 64.1661 252.298Z" fill="white"/>
<path d="M88.6544 251.498C89.213 251.397 89.7717 251.297 90.6514 251.138C90.6514 252.563 90.6467 253.861 90.6524 255.16C90.6633 257.671 90.9349 257.913 93.5497 257.564C93.6724 257.469 93.6573 257.435 93.6573 257.435C92.7631 257.82 91.7074 258.689 91.0187 258.46C90.2858 258.215 89.6635 256.993 89.4195 256.084C89.0682 254.774 89.1023 253.361 88.8147 251.827C88.6575 251.661 88.6544 251.498 88.6544 251.498Z" fill="white"/>
<path d="M177.874 252.269C177.703 252.298 177.719 252.122 177.716 252.034C180.04 250.607 181.567 251.426 181.697 254.042C181.769 255.485 181.934 256.922 182.06 258.402C181.595 258.402 180.582 258.402 179.6 258.402C180.417 257.502 180.868 253.541 180.035 252.716C179.621 252.306 178.724 252.383 177.874 252.269Z" fill="white"/>
<path d="M280.335 255.699C280.334 254.81 280.435 254.082 280.305 253.397C280.181 252.743 279.817 252.134 279.525 251.422C280.007 251.36 280.745 251.265 281.455 251.173C282.413 253.592 280.796 256.256 282.557 258.435C281.554 258.435 280.472 258.435 279.757 258.435C279.946 257.599 280.14 256.738 280.335 255.699Z" fill="white"/>
<path d="M287.134 252.27C286.963 252.298 286.979 252.123 286.976 252.034C289.3 250.607 290.827 251.426 290.957 254.042C291.029 255.484 291.194 256.922 291.32 258.402C290.855 258.402 289.842 258.402 288.86 258.402C289.677 257.502 290.128 253.541 289.295 252.716C288.881 252.306 287.983 252.383 287.134 252.27Z" fill="white"/>
<path d="M64.337 252.269C64.1662 252.298 64.1821 252.122 64.1788 252.034C66.5032 250.607 68.03 251.426 68.1602 254.042C68.2319 255.485 68.3966 256.922 68.5229 258.402C68.0577 258.402 67.0454 258.402 66.0632 258.402C66.88 257.502 67.3309 253.541 66.498 252.716C66.0843 252.305 65.1865 252.383 64.337 252.269Z" fill="white"/>
<path d="M127.327 252.269C127.156 252.298 127.172 252.122 127.168 252.034C129.493 250.607 131.02 251.426 131.15 254.042C131.222 255.485 131.386 256.922 131.512 258.402C131.047 258.402 130.035 258.402 129.053 258.402C129.87 257.502 130.321 253.541 129.488 252.716C129.074 252.305 128.176 252.383 127.327 252.269Z" fill="white"/>
<path d="M240.864 252.27C240.693 252.298 240.709 252.122 240.706 252.034C243.03 250.607 244.557 251.426 244.687 254.042C244.759 255.484 244.923 256.922 245.049 258.402C244.584 258.402 243.572 258.402 242.59 258.402C243.407 257.502 243.858 253.541 243.025 252.716C242.611 252.306 241.713 252.383 240.864 252.27Z" fill="white"/>
<path d="M170.147 251.809C170.742 251.529 171.476 251.31 172.184 251.098C173.108 253.634 171.566 256.259 173.299 258.442C172.271 258.442 171.193 258.442 170.064 258.442C171.415 257.292 171.528 253.015 170.147 251.809Z" fill="white"/>
<path d="M113.004 255.695C113.153 256.728 113.301 257.578 113.454 258.45C112.702 258.45 111.683 258.45 110.624 258.45C112.034 257.182 111.994 252.601 110.39 251.526C111.295 251.385 112.013 251.273 113.004 251.119C113.004 252.723 113.004 254.118 113.004 255.695Z" fill="white"/>
<path d="M185.473 257.329C185.544 257.143 185.615 256.956 185.688 256.591C185.789 256.323 185.855 256.215 186.02 256.147C186.827 256.113 188.016 256.159 188.087 255.9C188.373 254.85 188.513 253.663 188.283 252.62C188.196 252.228 186.956 252.091 186.24 251.742C186.237 251.646 186.238 251.455 186.238 251.455C187.826 251.378 189.415 251.3 191.003 251.223C191.031 251.436 191.06 251.65 191.088 251.863C190.617 252.046 190.147 252.229 189.674 252.413C190.424 255.335 189.891 256.234 186.958 257.059C186.534 257.177 186.15 257.434 185.609 257.574C185.469 257.522 185.473 257.329 185.473 257.329Z" fill="white"/>
<path d="M294.733 257.329C294.804 257.143 294.875 256.956 294.948 256.591C295.049 256.323 295.115 256.215 295.28 256.147C296.087 256.113 297.276 256.159 297.347 255.9C297.633 254.85 297.773 253.663 297.543 252.62C297.456 252.228 296.216 252.091 295.5 251.742C295.497 251.646 295.498 251.455 295.498 251.455C297.086 251.378 298.675 251.3 300.263 251.223C300.291 251.436 300.32 251.65 300.348 251.863C299.877 252.046 299.407 252.229 298.934 252.413C299.684 255.334 299.151 256.234 296.218 257.058C295.794 257.177 295.41 257.434 294.869 257.574C294.729 257.522 294.733 257.329 294.733 257.329Z" fill="white"/>
<path d="M204.128 251.471C205.742 250.807 207.051 251.396 208.074 252.605C209.134 253.858 209.196 255.349 208.445 256.77C207.59 258.388 206.135 258.914 204.248 258.475C204.133 258.304 204.133 258.116 204.295 258.13C206.639 258.146 207.498 257.137 207.383 254.703C207.275 252.404 206.355 251.592 204.131 251.742C204.13 251.651 204.128 251.471 204.128 251.471Z" fill="white"/>
<path d="M118.198 251.471C119.812 250.807 121.121 251.396 122.143 252.605C123.204 253.858 123.265 255.349 122.514 256.77C121.66 258.388 120.205 258.914 118.317 258.475C118.202 258.304 118.202 258.116 118.364 258.13C120.709 258.146 121.567 257.137 121.452 254.703C121.344 252.404 120.425 251.592 118.2 251.742C118.2 251.651 118.198 251.471 118.198 251.471Z" fill="white"/>
<path d="M231.735 251.471C233.349 250.807 234.658 251.396 235.68 252.605C236.741 253.858 236.802 255.349 236.051 256.77C235.197 258.388 233.742 258.914 231.854 258.475C231.739 258.304 231.739 258.116 231.901 258.13C234.246 258.146 235.104 257.137 234.99 254.703C234.881 252.404 233.962 251.592 231.737 251.742C231.737 251.651 231.735 251.471 231.735 251.471Z" fill="white"/>
<path d="M55.208 251.471C56.822 250.807 58.1312 251.396 59.1537 252.605C60.2139 253.858 60.2753 255.349 59.5246 256.77C58.6701 258.388 57.2148 258.914 55.3274 258.475C55.2124 258.304 55.2123 258.116 55.3744 258.13C57.7192 258.146 58.5775 257.137 58.4627 254.703C58.3543 252.404 57.4351 251.592 55.2106 251.742C55.2099 251.652 55.208 251.471 55.208 251.471Z" fill="white"/>
<path d="M148.915 251.471C150.529 250.807 151.838 251.396 152.861 252.605C153.921 253.858 153.982 255.349 153.232 256.77C152.377 258.388 150.922 258.914 149.034 258.475C148.919 258.304 148.919 258.116 149.081 258.13C151.426 258.146 152.284 257.137 152.17 254.703C152.061 252.404 151.142 251.592 148.918 251.742C148.917 251.651 148.915 251.471 148.915 251.471Z" fill="white"/>
<path d="M93.7986 257.536C93.6574 257.435 93.6724 257.469 93.6796 257.486C94.5381 254.874 94.228 252.394 92.7424 251.568C93.6638 251.434 94.39 251.329 95.1129 251.225C95.9449 253.62 94.457 256.236 95.9686 258.817C95.2924 258.424 94.6161 258.03 93.7986 257.536Z" fill="white"/>
<path d="M160.288 257.535C160.146 257.435 160.162 257.469 160.169 257.486C161.027 254.874 160.717 252.394 159.232 251.568C160.153 251.434 160.879 251.329 161.668 251.215C162.279 253.643 161.185 256.2 162.782 259.006C161.782 258.424 161.105 258.03 160.288 257.535Z" fill="white"/>
<path d="M185.344 257.337C185.473 257.329 185.469 257.522 185.471 257.619C185.742 258.149 185.915 258.815 186.296 258.969C187.181 259.325 188.181 259.383 189.106 259.655C191.091 260.238 191.426 261.2 190.249 263.15C190.485 261.744 189.819 261.046 188.464 260.811C187.426 260.631 186.392 260.421 185.216 260.169C183.8 259.124 183.796 258.198 185.344 257.337Z" fill="white"/>
<path d="M294.604 257.337C294.733 257.329 294.729 257.522 294.731 257.619C295.002 258.149 295.175 258.815 295.556 258.969C296.441 259.325 297.441 259.383 298.366 259.655C300.351 260.238 300.686 261.2 299.509 263.15C299.745 261.744 299.079 261.046 297.724 260.811C296.686 260.631 295.652 260.421 294.476 260.169C293.06 259.124 293.056 258.198 294.604 257.337Z" fill="white"/>
<path d="M82.1995 251.874C82.0494 251.813 82.0496 251.659 82.0472 251.581C82.6091 251.399 83.1734 251.293 84.1088 251.118C84.2133 253.607 84.3133 255.989 84.4154 258.419C83.951 258.419 82.9367 258.419 81.9221 258.416C82.9887 257.342 83.2189 253.857 82.1995 251.874Z" fill="white"/>
<path d="M252.505 251.874C252.355 251.813 252.355 251.659 252.353 251.581C252.915 251.399 253.48 251.293 254.414 251.118C254.519 253.607 254.619 255.989 254.721 258.419C254.257 258.419 253.242 258.419 252.228 258.416C253.294 257.341 253.524 253.857 252.505 251.874Z" fill="white"/>
<path d="M210.357 251.497C210.922 251.398 211.488 251.3 212.474 251.128C212.474 252.466 212.431 253.674 212.487 254.877C212.541 256.049 212.695 257.216 212.809 258.42C212.262 258.42 211.248 258.42 210.476 258.42C211.483 256.33 211.421 254.157 210.513 251.798C210.361 251.658 210.357 251.497 210.357 251.497Z" fill="white"/>
<path d="M148.919 258.116C148.919 258.116 148.919 258.304 148.918 258.398C147.113 258.196 146.289 257 146.147 255.305C145.99 253.423 146.782 252.075 148.774 251.458C148.915 251.471 148.917 251.651 148.802 251.83C147.134 254.066 147.217 256.238 148.919 258.116Z" fill="white"/>
<path d="M55.0666 251.458C55.208 251.471 55.2099 251.651 55.0948 251.83C53.4273 254.066 53.51 256.239 55.2123 258.116C55.2123 258.116 55.2123 258.304 55.2113 258.398C53.4056 258.195 52.5824 257 52.4404 255.305C52.2828 253.423 53.0753 252.075 55.0666 251.458Z" fill="white"/>
<path d="M118.202 258.116C118.202 258.116 118.202 258.304 118.201 258.398C116.395 258.196 115.572 257 115.43 255.305C115.273 253.423 116.065 252.075 118.056 251.458C118.198 251.471 118.2 251.651 118.085 251.83C116.417 254.066 116.5 256.238 118.202 258.116Z" fill="white"/>
<path d="M203.987 251.458C204.128 251.471 204.13 251.651 204.015 251.83C202.347 254.066 202.43 256.239 204.133 258.116C204.133 258.116 204.133 258.304 204.132 258.398C202.326 258.196 201.503 257 201.361 255.305C201.203 253.423 201.995 252.075 203.987 251.458Z" fill="white"/>
<path d="M231.739 258.116C231.739 258.116 231.739 258.304 231.738 258.398C229.932 258.196 229.109 257 228.967 255.305C228.81 253.423 229.602 252.075 231.594 251.458C231.735 251.471 231.737 251.651 231.622 251.83C229.954 254.066 230.037 256.239 231.739 258.116Z" fill="white"/>
<path d="M262.722 254.283C262.863 254.363 262.873 254.5 262.73 254.764C261.549 255.221 260.295 255.487 260.673 256.922C260.77 257.291 261.919 257.382 262.585 257.601C262.753 257.685 262.921 257.769 263.161 257.975C262.711 258.28 262.137 258.698 261.677 258.597C260.845 258.414 259.686 258.104 259.407 257.502C259.163 256.975 259.755 255.791 260.314 255.237C260.846 254.709 261.814 254.62 262.722 254.283Z" fill="white"/>
<path d="M184.182 261.135C184.114 263.163 185.482 263.516 186.958 263.626C187.77 263.687 188.599 263.515 189.598 263.487C188.301 264.854 186.586 264.794 184.881 264.224C183.282 263.69 183.054 262.626 184.182 261.135Z" fill="white"/>
<path d="M293.442 261.135C293.374 263.163 294.742 263.516 296.218 263.626C297.03 263.687 297.859 263.515 298.858 263.487C297.561 264.854 295.846 264.794 294.141 264.224C292.542 263.69 292.314 262.626 293.442 261.135Z" fill="white"/>
<path d="M295.357 251.447C295.498 251.455 295.497 251.646 295.39 251.845C295.238 253.391 295.193 254.739 295.148 256.087C295.115 256.215 295.049 256.323 294.87 256.463C292.639 254.88 292.807 252.895 295.357 251.447Z" fill="white"/>
<path d="M185.888 256.087C185.855 256.215 185.789 256.323 185.61 256.463C183.38 254.88 183.547 252.895 186.097 251.447C186.238 251.455 186.237 251.646 186.13 251.845C185.978 253.391 185.933 254.739 185.888 256.087Z" fill="white"/>
<path d="M50.6421 249.851C49.5522 248.934 48.4893 247.88 47.5031 246.903C48.3016 246.981 49.374 247.086 50.6692 247.214C50.6692 247.954 50.6692 248.835 50.6421 249.851Z" fill="white"/>
<path d="M222.36 280.887C222.093 281.526 221.808 282.072 221.41 282.516C221.357 282.576 220.525 282.196 220.43 281.9C220.306 281.513 220.473 280.666 220.667 280.618C221.169 280.491 221.754 280.692 222.36 280.887Z" fill="white"/>
<path d="M150.078 279.655C149.428 279.812 148.821 279.905 148.241 279.818C148.136 279.803 147.984 278.974 148.139 278.661C148.296 278.344 149.073 277.968 149.119 278.021C149.516 278.471 149.808 279.014 150.078 279.655Z" fill="white"/>
<path d="M195.997 276.003C195.776 277.257 195.06 277.538 194.202 276.929C193.924 276.731 193.824 275.728 194.059 275.463C194.784 274.648 195.52 274.86 195.997 276.003Z" fill="white"/>
<path d="M77.4856 280.079C76.8387 279.896 76.2631 279.68 75.8042 279.316C75.7163 279.247 75.9888 278.454 76.2753 278.257C76.552 278.067 77.3847 278.125 77.4147 278.231C77.5731 278.792 77.5546 279.402 77.4856 280.079Z" fill="white"/>
<path d="M74.8348 279.681C73.9633 280.594 73.1901 280.47 72.8258 279.501C72.6968 279.157 73.3162 278.533 73.5939 278.037C74.036 278.545 74.478 279.053 74.8348 279.681Z" fill="white"/>
<path d="M183.988 276.211C184.088 276.886 184.134 277.497 183.995 278.063C183.968 278.175 183.132 278.269 182.847 278.088C182.555 277.903 182.257 277.122 182.353 277.036C182.782 276.65 183.351 276.418 183.988 276.211Z" fill="white"/>
<path d="M151.13 278.586C151.758 278.424 152.354 278.248 152.841 278.406C153.041 278.471 153.167 279.321 153.022 279.698C152.913 279.983 152.065 280.312 151.987 280.226C151.596 279.792 151.351 279.227 151.13 278.586Z" fill="white"/>
<path d="M112.009 276.561C111.325 277.558 110.568 277.691 110.016 276.727C109.837 276.413 110.119 275.458 110.43 275.313C111.383 274.869 112.053 275.242 112.009 276.561Z" fill="white"/>
<path d="M186.817 278.224C185.546 278.328 185.089 277.716 185.484 276.72C185.613 276.394 186.535 276.035 186.841 276.19C187.835 276.694 187.76 277.464 186.817 278.224Z" fill="white"/>
<path d="M114.965 275.706C115.208 276.921 114.703 277.506 113.659 277.247C113.308 277.159 112.81 276.278 112.926 275.955C113.291 274.936 114.059 274.83 114.965 275.706Z" fill="white"/>
<path d="M88.4954 251.509C88.6544 251.498 88.6575 251.661 88.6593 251.742C88.1427 252.113 87.6244 252.403 86.8865 252.816C86.4189 252.744 85.6205 252.62 84.7707 252.489C85.5029 250.668 87.0591 251.552 88.4954 251.509Z" fill="white"/>
<path d="M214.131 251.444C215.552 251.07 216.344 251.236 215.7 252.869C214.815 252.748 213.956 252.63 212.92 252.487C213.302 252.138 213.65 251.82 214.131 251.444Z" fill="white"/>
<path d="M256.995 252.801C256.265 252.662 255.665 252.589 255.065 252.516C255.013 252.405 254.96 252.294 254.908 252.182C255.659 251.871 256.394 251.5 257.173 251.291C257.37 251.238 257.707 251.704 257.979 251.931C257.695 252.243 257.41 252.556 256.995 252.801Z" fill="white"/>
<path d="M109.717 258.062C109.511 258.066 109.428 258.024 109.317 257.898C109.495 257.771 109.713 257.702 110.061 257.729C110.19 257.825 110.209 257.815 110.209 257.815C110.081 257.891 109.954 257.967 109.717 258.062Z" fill="white"/>
<path d="M210.248 251.475C210.357 251.497 210.361 251.658 210.363 251.738C210.193 251.792 210.022 251.766 209.851 251.74C209.947 251.645 210.044 251.549 210.248 251.475Z" fill="white"/>
<path d="M189.854 263.546C189.785 263.414 189.833 263.268 190.021 263.127C190.097 263.265 190.035 263.398 189.854 263.546Z" fill="white"/>
<path d="M299.114 263.546C299.045 263.414 299.093 263.268 299.281 263.127C299.357 263.265 299.295 263.398 299.114 263.546Z" fill="white"/>
<path d="M177.397 200.657C177.514 200.589 177.591 200.645 177.671 200.8C177.697 200.867 177.51 200.885 177.51 200.885C177.51 200.885 177.38 200.749 177.397 200.657Z" fill="#377BBD"/>
<path d="M293.84 260.741C293.92 260.87 293.868 261.034 293.679 261.208C293.597 261.071 293.652 260.924 293.84 260.741Z" fill="white"/>
<path d="M259.538 252.85C259.538 252.841 259.538 252.859 259.538 252.85V252.85Z" fill="white"/>
<path d="M81.4298 257.829C81.4011 257.785 81.3599 257.737 81.3186 257.688C81.3277 257.687 81.3367 257.686 81.3906 257.75C81.4354 257.815 81.4173 257.825 81.4298 257.829Z" fill="white"/>
<path d="M110.203 257.829C110.174 257.785 110.133 257.737 110.092 257.688C110.101 257.687 110.11 257.686 110.164 257.75C110.209 257.815 110.19 257.825 110.203 257.829Z" fill="white"/>
<path d="M251.735 257.829C251.707 257.785 251.666 257.737 251.624 257.688C251.633 257.687 251.642 257.686 251.696 257.75C251.741 257.815 251.723 257.825 251.735 257.829Z" fill="white"/>
<path d="M278.564 257.829C278.536 257.785 278.494 257.737 278.453 257.688C278.462 257.687 278.471 257.686 278.525 257.75C278.57 257.815 278.552 257.825 278.564 257.829Z" fill="white"/>
<path d="M184.58 260.741C184.66 260.87 184.608 261.034 184.419 261.208C184.337 261.071 184.392 260.924 184.58 260.741Z" fill="white"/>
<path fill-rule="evenodd" clip-rule="evenodd" d="M164.478 104.85V104.848L164.478 104.846C164.466 103.697 164.454 102.549 164.467 101.053V101.051C164.466 99.6563 164.466 98.2614 164.495 96.515C164.489 94.743 164.483 92.971 164.507 90.8478V90.8462C164.493 89.1977 164.48 87.549 164.511 85.5499C164.499 83.7762 164.488 82.0026 164.528 79.8849C164.508 78.6123 164.488 77.3397 164.53 75.7248V75.7239C164.512 74.4517 164.494 73.1794 164.538 71.571C164.517 70.5484 164.496 69.5258 164.54 68.1834C164.518 67.5333 164.496 66.8833 164.547 65.9351C164.621 65.0195 164.694 64.1039 164.993 63.0687C166.229 61.7404 167.465 60.4121 168.919 59.0047C169.716 58.2094 170.283 58.694 170.933 59.2499C171.083 59.3781 171.238 59.5101 171.4 59.6311C172.773 60.9477 174.145 62.2642 175.466 63.9025C175.486 64.552 175.506 65.2015 175.463 66.1329V66.1331C175.478 66.4205 175.492 66.7078 175.439 67.2912C175.46 67.6935 175.481 68.0958 175.463 68.7522C175.479 68.9221 175.496 69.092 175.465 69.4469C175.481 69.5084 175.497 69.57 175.464 69.9153C175.481 70.2016 175.497 70.488 175.465 70.9656C175.481 71.0296 175.496 71.0935 175.461 71.489V71.4896C175.483 72.3826 175.505 73.2757 175.463 74.5003V74.5009C175.485 75.3993 175.507 76.2978 175.466 77.5269L175.466 77.5281C175.486 78.4248 175.506 79.3218 175.461 80.564C175.484 82.0853 175.506 83.6067 175.463 85.4791V85.4805C175.482 87.7521 175.5 90.0239 175.446 92.6489C175.464 95.1804 175.483 97.7119 175.441 100.594C175.452 102.118 175.462 103.642 175.435 105.521C175.447 112.096 175.46 118.671 175.446 125.591C175.465 126.991 175.483 128.391 175.468 130.139C175.487 132.165 175.507 134.19 175.471 136.562C175.492 138.465 175.514 140.367 175.483 142.617V142.618C175.5 144.767 175.516 146.916 175.476 149.413C175.493 151.692 175.51 153.971 175.475 156.568C175.486 157.214 175.497 157.859 175.457 158.695C175.473 158.759 175.489 158.823 175.464 159.224C175.473 160.241 175.483 161.257 175.43 162.53C175.454 162.703 175.478 162.875 175.463 163.386C175.474 164.404 175.484 165.422 175.441 166.636C175.457 166.702 175.474 166.768 175.456 167.146V167.146C175.467 167.67 175.477 168.193 175.418 169.044L175.418 169.045C175.442 169.824 175.466 170.602 175.465 171.731C175.487 173.502 175.51 175.274 175.472 177.394V177.399L175.472 177.403C175.49 180.81 175.507 184.217 175.489 187.803L175.616 187.935C175.616 187.935 175.799 187.918 176.115 187.977L179.222 187.594C179.222 183.808 179.222 180.233 179.306 176.314C179.329 174.669 179.353 173.023 179.478 171.295C179.444 171.182 179.411 171.069 179.301 170.94C179.301 170.94 179.23 170.97 179.318 170.626L179.317 170.623C179.286 167.718 179.255 164.813 179.297 161.562C179.272 159.66 179.247 157.758 179.296 155.509C179.271 153.23 179.245 150.951 179.281 148.322C179.26 146.169 179.238 144.016 179.271 141.513C179.253 139.486 179.235 137.459 179.258 135.081L179.258 135.077C179.239 132.676 179.22 130.275 179.231 127.526V127.521C179.228 126.121 179.226 124.721 179.236 123.079V123.078V123.078C179.228 122.916 179.22 122.754 179.222 122.398C179.22 122.333 179.219 122.268 179.426 121.969C179.439 121.411 179.457 120.853 179.476 120.295L179.476 120.295C179.518 119.054 179.559 117.813 179.535 116.573C179.499 114.746 179.431 112.919 179.361 111.015L179.361 111.014C179.314 109.754 179.267 108.46 179.226 107.11C179.218 105.334 179.21 103.559 179.229 101.429C179.226 98.6498 179.222 95.8706 179.247 92.795V92.7947C179.266 92.3988 179.285 92.0028 179.432 91.5051C179.438 91.4976 179.444 91.4901 179.451 91.4825L179.451 91.4819C179.515 91.4034 179.584 91.318 179.863 91.2393C180.605 91.5733 181.342 91.9232 182.078 92.2731C183.776 93.0795 185.474 93.8859 187.239 94.4977C189.408 95.2495 190.678 96.3114 190.209 99.0943C190.228 100.744 190.246 102.394 190.204 104.394C190.228 112.226 190.252 120.059 190.226 128.241C190.246 130.519 190.266 132.798 190.23 135.424V135.426C190.249 137.957 190.268 140.487 190.231 143.366V143.37C190.232 146.901 190.233 150.433 190.192 154.173C190.212 154.242 190.231 154.31 190.222 154.715C190.238 155.73 190.254 156.746 190.205 158.002C190.227 158.166 190.248 158.33 190.219 158.751C190.236 158.923 190.253 159.096 190.221 159.452C190.238 159.513 190.254 159.574 190.216 159.981C190.23 161.385 190.244 162.789 190.192 164.527L190.192 164.528C190.214 165.547 190.237 166.565 190.217 167.916V167.917C190.229 168.812 190.24 169.708 190.195 170.797C190.213 170.861 190.231 170.926 190.208 171.32C190.232 172.094 190.256 172.868 190.221 173.99V185.56C191.457 185.182 192.508 184.861 193.749 184.539C193.782 184.43 193.815 184.321 193.9 183.862C193.877 180.077 193.854 176.292 193.9 172.164V172.163C193.885 170.764 193.869 169.365 193.907 167.773C193.889 167.708 193.871 167.643 193.895 167.301C193.881 167.023 193.866 166.744 193.923 166.146C193.902 165.496 193.881 164.845 193.905 163.908C193.889 163.619 193.873 163.33 193.904 162.856C193.887 162.795 193.869 162.734 193.899 162.324V162.323C193.88 160.797 193.861 159.271 193.891 157.562C193.874 157.501 193.858 157.44 193.892 157.125C193.875 156.953 193.858 156.782 193.894 156.427C193.876 156.367 193.858 156.306 193.886 155.99V155.99C193.871 155.818 193.855 155.647 193.894 155.293C193.875 155.232 193.857 155.171 193.886 154.801C193.874 154.28 193.861 153.759 193.908 153.041C193.894 152.973 193.881 152.906 193.913 152.487C193.885 148.826 193.857 145.165 193.9 141.154C193.876 138.498 193.852 135.842 193.899 132.834C193.835 129.898 193.771 126.962 193.839 123.752C193.877 121.353 193.915 118.954 194.209 116.604C195.007 116.935 195.806 117.267 196.839 117.732C198.148 118.312 199.456 118.892 201.005 119.602L201.005 119.602C202.289 120.253 203.572 120.903 204.827 121.89C204.847 124.767 204.866 127.644 204.835 130.873C204.852 133.277 204.87 135.681 204.827 138.435C204.846 141.217 204.865 143.999 204.829 147.132C204.847 150.67 204.865 154.209 204.816 158.096C204.841 160.249 204.865 162.402 204.818 164.904V180.196C205.313 179.718 205.915 179.465 206.478 179.229C207.458 178.818 208.324 178.454 208.318 177.032L208.316 176.632V176.631C208.296 171.978 208.276 167.316 208.312 162.323C208.293 160.296 208.275 158.27 208.314 155.893C208.295 152.103 208.276 148.312 208.315 144.171C208.295 140.883 208.276 137.595 208.309 133.956C208.291 130.67 208.273 127.384 208.307 123.824C208.326 123.545 208.346 123.267 208.614 123.046C209.398 123.379 210.183 123.712 211.199 124.171L211.2 124.171C212.005 124.51 212.81 124.85 213.827 125.345C214.633 125.699 215.439 126.054 216.374 126.632C217.093 126.895 217.812 127.158 218.76 127.575C218.959 128.323 219.158 129.07 219.339 130.029V130.037C219.343 133.743 219.348 137.45 219.31 141.462C219.323 143.11 219.335 144.758 219.296 146.744V146.744C219.314 147.766 219.331 148.789 219.296 150.159C219.314 151.807 219.332 153.456 219.297 155.456V170.152L219.956 170.525L219.957 170.525C220.875 169.44 221.793 168.354 222.831 167.169C222.906 167.079 222.909 166.993 222.92 166.648V166.648L222.924 166.54C222.88 161.592 222.835 156.644 222.883 151.43L222.884 151.43C223.098 150.687 223.313 149.945 223.746 149.381L233.818 154.082C233.941 153.904 234.06 153.736 234.175 153.575L234.175 153.574C234.409 153.245 234.625 152.941 234.818 152.623C237.138 148.799 239.084 144.897 240.651 140.916C230.336 169.69 202.822 190.273 170.5 190.273C141.579 190.273 116.507 173.794 104.162 149.712C104.908 151.032 105.7 152.338 106.538 153.629L106.541 153.628C109.755 152 112.923 150.397 116.344 148.631L117.618 148.296C117.618 149.579 117.618 150.641 117.566 152.053C117.565 153.307 117.581 154.563 117.598 155.818C117.636 158.769 117.673 161.72 117.487 164.657C117.313 167.408 118.921 168.521 120.84 169.851L120.954 169.93C120.954 164.59 120.954 159.469 121.026 154.001V154C121.001 152.099 120.977 150.198 121.024 147.963V147.962C121.001 146.939 120.977 145.916 121.025 144.589V144.589C120.914 143.192 120.804 141.795 120.957 140.199C120.957 136.596 120.957 132.992 121.029 129.102C121.384 128.433 121.739 127.763 122.361 127.172L122.362 127.172C123.027 126.878 123.693 126.584 124.622 126.261L124.622 126.261C125.748 125.7 126.875 125.139 128.261 124.557L128.262 124.556L128.262 124.556C129.23 124.122 130.197 123.688 131.432 123.233C131.486 123.366 131.553 123.499 131.621 123.631C131.768 123.919 131.914 124.206 131.922 124.497C131.993 127.138 131.997 129.781 131.973 132.77C131.986 134.291 132 135.812 131.964 137.518C131.98 137.579 131.996 137.641 131.965 138.054C131.977 140.083 131.988 142.111 131.955 144.335C131.972 144.399 131.99 144.463 131.968 144.776C131.981 144.942 131.994 145.109 131.941 145.552C131.962 145.835 131.984 146.117 131.966 146.654L131.966 146.654C131.979 146.824 131.992 146.995 131.939 147.443V147.443L131.939 147.444C131.961 147.726 131.982 148.008 131.961 148.643C131.98 151.424 131.999 154.205 131.967 157.243C131.983 157.416 131.998 157.589 131.949 158.096C131.969 159.11 131.989 160.125 131.96 161.396C131.975 161.569 131.989 161.742 131.953 162.099C131.97 162.16 131.986 162.222 131.955 162.569C131.976 162.856 131.997 163.143 131.966 163.708C131.98 163.991 131.995 164.273 131.955 164.746C131.973 164.81 131.991 164.874 131.964 165.289C131.996 169.456 132.027 173.624 132.047 177.947C132.101 178.059 132.189 178.099 132.541 178.214L135.57 179.838C135.57 174.42 135.57 169.306 135.646 163.844V163.843C135.624 161.816 135.603 159.788 135.653 157.452V157.451C135.643 156.924 135.633 156.396 135.672 155.67C135.653 155.604 135.633 155.539 135.652 155.195C135.639 154.916 135.626 154.636 135.67 154.158C135.651 154.092 135.632 154.027 135.649 153.715V153.715C135.639 153.551 135.63 153.386 135.669 153.023C135.649 152.957 135.63 152.892 135.645 152.579V152.579C135.634 152.413 135.624 152.247 135.689 151.801V151.801L135.689 151.801C135.663 151.515 135.637 151.229 135.644 150.695C135.632 150.529 135.621 150.363 135.664 149.999C135.646 149.932 135.627 149.866 135.646 149.522V149.522C135.633 149.243 135.619 148.963 135.66 148.486C135.642 148.42 135.623 148.354 135.641 147.976C135.617 147.456 135.592 146.936 135.642 146.067V146.065C135.619 142.653 135.596 139.242 135.648 135.481C135.642 130.804 135.637 126.126 135.824 121.253C137.296 120.55 138.769 119.846 140.514 119.134C142.183 118.367 143.851 117.599 145.79 116.806C145.851 116.955 145.926 117.104 146.002 117.252L146.002 117.253C146.165 117.575 146.329 117.896 146.342 118.224C146.454 121.046 146.491 123.87 146.449 127.045C146.498 130.608 146.546 134.172 146.483 138.07C146.508 141.443 146.532 144.816 146.421 148.406L146.421 148.406C146.452 148.651 146.484 148.895 146.481 149.351C146.495 149.493 146.508 149.634 146.427 149.997C146.451 150.074 146.476 150.15 146.468 150.57V150.571C146.473 153.191 146.478 155.811 146.379 158.654C146.432 158.881 146.485 159.108 146.529 159.638C146.558 162.795 146.586 165.952 146.545 169.456C146.532 171.707 146.52 173.959 146.384 176.34C146.327 176.452 146.315 176.569 146.303 177.039C146.302 177.617 146.309 178.195 146.316 178.774C146.332 180.143 146.348 181.513 146.264 182.876C146.189 184.078 146.684 184.594 147.743 184.828C148.234 184.937 148.72 185.068 149.245 185.209L149.247 185.209C149.493 185.275 149.747 185.344 150.015 185.413C150.015 180.383 150.015 175.5 150.076 170.267C150.056 166.727 150.035 163.188 150.073 159.298C150.053 156.39 150.034 153.482 150.072 150.222C150.053 146.811 150.033 143.4 150.072 139.636V139.634C150.056 136.348 150.039 133.063 150.075 129.425C150.057 120.08 150.039 110.736 150.056 101.042C150.058 100.659 150.051 100.276 150.044 99.892L150.044 99.8917C150.026 98.953 150.008 98.0143 150.125 97.0928C150.201 96.4961 150.672 95.6972 151.185 95.4502C154.062 94.0653 156.997 92.7994 159.942 91.5624C160.226 91.4429 160.711 91.7999 161.051 92.286C161.069 93.9363 161.087 95.5866 161.063 97.5862V97.5878C161.075 99.1114 161.087 100.635 161.058 102.509C161.066 104.278 161.074 106.047 161.052 108.171C161.062 112.854 161.072 117.536 161.058 122.568C161.069 124.468 161.08 126.369 161.068 128.621C161.078 131.276 161.087 133.93 161.063 136.936V136.938C161.076 139.216 161.089 141.494 161.066 144.123V144.126C161.079 146.906 161.093 149.687 161.066 152.818C161.079 155.725 161.093 158.632 161.062 161.89C161.077 164.673 161.092 167.455 161.06 170.586C161.077 172.36 161.094 174.134 161.06 176.258V187.54L164.472 188.021C164.472 184.004 164.472 180.142 164.556 175.938C164.563 174.431 164.571 172.923 164.717 171.238C164.669 170.888 164.622 170.538 164.515 170.161C164.515 170.161 164.477 170.213 164.562 169.869C164.533 167.215 164.504 164.561 164.552 161.56C164.529 158.649 164.506 155.738 164.549 152.478C164.525 149.695 164.501 146.912 164.53 143.779V143.777L164.53 143.775C164.511 141.498 164.492 139.221 164.513 136.592C164.493 134.19 164.473 131.788 164.483 129.037V129.037C164.48 127.517 164.478 125.997 164.678 124.24C164.692 124.062 164.708 123.885 164.725 123.707C164.761 123.324 164.797 122.941 164.798 122.558L164.799 122.33C164.807 117.52 164.816 112.71 164.784 107.9C164.782 107.544 164.71 107.187 164.632 106.799L164.632 106.799L164.632 106.799C164.567 106.479 164.498 106.137 164.46 105.755C164.462 105.688 164.464 105.621 164.476 105.374C164.476 105.374 164.468 105.194 164.478 104.85ZM104.161 149.711C116.506 173.793 141.578 190.274 170.5 190.274C202.824 190.274 230.339 169.688 240.652 140.912C240.652 140.914 240.651 140.915 240.651 140.916C242.41 136.007 243.669 130.86 244.366 125.535C244.784 122.341 245 119.082 245 115.774C245 115.774 245 115.774 245 115.773C245 97.8139 238.645 81.3386 228.061 68.4736C227.078 67.278 226.057 66.1136 225.002 64.9821C222.975 62.9381 220.801 60.9832 218.482 59.1182C199.935 44.1994 178.708 39.093 155.336 43.5605C144.781 45.578 135.277 49.5162 126.916 55.3464C108.187 68.8782 96 90.9027 96 115.774C96 120.358 96.414 124.845 97.2066 129.2C98.5192 136.412 100.87 143.262 104.099 149.589C104.12 149.63 104.141 149.671 104.162 149.712C104.162 149.712 104.161 149.712 104.161 149.711Z" fill="white"/>
</svg>
